<svg width="476" height="187" viewBox="0 0 476 187" fill="none" xmlns="http://www.w3.org/2000/svg">
<g filter="url(#filter0_f_3_5)">
<path d="M165.913 92.2184C167.508 92.5113 168.965 92.5439 170.283 92.316C171.618 92.0719 172.757 91.5673 173.701 90.8023C174.661 90.0211 175.402 88.9713 175.923 87.6529C176.46 86.3346 176.728 84.7232 176.728 82.8189C176.728 81.5006 176.59 80.3043 176.313 79.2301C176.037 78.1396 175.622 77.22 175.068 76.4713C174.531 75.7063 173.848 75.1204 173.018 74.7135C172.187 74.2903 171.219 74.0787 170.112 74.0787C169.412 74.0787 168.802 74.1113 168.281 74.1764C167.76 74.2252 167.321 74.2822 166.963 74.3473C166.54 74.4286 166.19 74.5182 165.913 74.6158V92.2184ZM160.762 72.7115C161.087 72.7441 161.429 72.7766 161.787 72.8092C162.096 72.8417 162.438 72.8661 162.812 72.8824C163.203 72.8824 163.602 72.8824 164.009 72.8824C164.643 72.8824 165.498 72.8092 166.572 72.6627C167.663 72.4999 169.046 72.4185 170.723 72.4185C172.285 72.4185 173.726 72.6464 175.044 73.1021C176.379 73.5579 177.534 74.2252 178.511 75.1041C179.487 75.983 180.244 77.0572 180.781 78.3268C181.335 79.58 181.611 81.0123 181.611 82.6236C181.611 84.7883 181.18 86.6601 180.317 88.2389C179.455 89.8176 178.299 91.0953 176.851 92.0719C175.402 93.0484 173.734 93.7157 171.846 94.0738C169.958 94.4156 167.98 94.4319 165.913 94.1227V98.1754C165.913 99.5588 165.929 100.771 165.962 101.813C166.011 102.838 166.06 103.726 166.108 104.474C166.173 105.223 166.247 105.85 166.328 106.354C166.426 106.859 166.523 107.282 166.621 107.624V107.721H160.762V107.624C160.859 107.282 160.949 106.859 161.03 106.354C161.128 105.85 161.209 105.223 161.274 104.474C161.339 103.726 161.388 102.838 161.421 101.813C161.453 100.771 161.47 99.5588 161.47 98.1754V82.2818C161.47 80.8984 161.453 79.6939 161.421 78.6685C161.388 77.6269 161.339 76.7317 161.274 75.983C161.209 75.218 161.128 74.5833 161.03 74.0787C160.949 73.5741 160.859 73.151 160.762 72.8092V72.7115ZM186.103 81.4762C187.699 81.4762 189.334 81.4762 191.011 81.4762C192.687 81.4599 194.241 81.4436 195.674 81.4273C197.106 81.3948 198.335 81.3622 199.36 81.3297C200.402 81.2971 201.086 81.2483 201.411 81.1832L200.459 83.8199C200.019 83.706 199.523 83.6002 198.97 83.5025C198.481 83.4212 197.887 83.3479 197.187 83.2828C196.504 83.2014 195.706 83.1607 194.795 83.1607C194.469 83.1607 194.095 83.177 193.672 83.2096C193.249 83.2258 192.842 83.2503 192.451 83.2828C191.995 83.3154 191.532 83.3479 191.06 83.3805V93.024C192.378 93.0077 193.566 92.9752 194.624 92.9264C195.682 92.8775 196.585 92.8124 197.334 92.731C198.213 92.6659 198.986 92.5764 199.653 92.4625L199.067 95.3678C198.172 95.2538 197.269 95.1562 196.357 95.0748C195.576 94.9934 194.713 94.9283 193.769 94.8795C192.825 94.8144 191.922 94.7818 191.06 94.7818V105.866C192.573 105.866 193.965 105.809 195.234 105.695C196.504 105.565 197.611 105.426 198.555 105.28C199.661 105.101 200.662 104.897 201.558 104.67L200.996 107.868C200.752 107.851 200.353 107.827 199.8 107.795C199.263 107.778 198.693 107.762 198.091 107.746C197.505 107.746 196.951 107.738 196.431 107.721C195.91 107.721 195.552 107.721 195.356 107.721H186.103V107.624C186.217 107.282 186.315 106.842 186.396 106.305C186.494 105.768 186.567 105.109 186.616 104.328C186.681 103.53 186.73 102.586 186.763 101.496C186.795 100.405 186.811 99.1275 186.811 97.6627V91.5103C186.811 90.0455 186.795 88.776 186.763 87.7018C186.73 86.6113 186.681 85.6754 186.616 84.8941C186.567 84.0966 186.494 83.4293 186.396 82.8922C186.315 82.3551 186.217 81.9156 186.103 81.5738V81.4762ZM199.165 74.6646C197.961 75.0715 196.74 75.5029 195.503 75.9586C194.966 76.1539 194.404 76.3655 193.818 76.5934C193.232 76.8212 192.638 77.0654 192.036 77.3258C191.434 77.5862 190.824 77.8547 190.205 78.1314C189.603 78.3919 189.025 78.6685 188.472 78.9615L187.935 78.0582C188.992 77.3583 190.042 76.5934 191.084 75.7633C192.142 74.9332 193.11 74.1519 193.989 73.4195C194.998 72.5732 195.975 71.7187 196.919 70.856L199.165 74.6646ZM213.716 83.2828C212.235 83.2828 210.884 83.3479 209.663 83.4781C208.459 83.6083 207.417 83.7467 206.538 83.8932C205.529 84.0722 204.617 84.2675 203.804 84.4791L204.292 81.3297C204.536 81.3622 204.935 81.3866 205.488 81.4029C206.042 81.4192 206.619 81.4355 207.222 81.4518C207.84 81.4518 208.418 81.4599 208.955 81.4762C209.508 81.4762 209.891 81.4762 210.102 81.4762H221.65C221.846 81.4762 222.204 81.4762 222.725 81.4762C223.262 81.4599 223.831 81.4518 224.434 81.4518C225.036 81.4355 225.614 81.4192 226.167 81.4029C226.72 81.3866 227.119 81.3622 227.363 81.3297L227.852 84.4791C227.07 84.2675 226.175 84.0722 225.166 83.8932C224.303 83.7467 223.262 83.6083 222.041 83.4781C220.837 83.3479 219.477 83.2828 217.964 83.2828V97.6627C217.964 99.1275 217.98 100.405 218.013 101.496C218.045 102.586 218.086 103.53 218.135 104.328C218.2 105.109 218.273 105.768 218.354 106.305C218.436 106.842 218.533 107.282 218.647 107.624V107.721H213.008V107.624C213.122 107.282 213.219 106.842 213.301 106.305C213.382 105.768 213.455 105.109 213.52 104.328C213.586 103.53 213.634 102.586 213.667 101.496C213.699 100.405 213.716 99.1275 213.716 97.6627V83.2828ZM245.649 99.4693C245.21 99.4693 244.657 99.4693 243.989 99.4693C243.338 99.4693 242.622 99.4693 241.841 99.4693C241.06 99.4693 240.254 99.4693 239.424 99.4693C238.594 99.4693 237.804 99.4775 237.056 99.4937C236.307 99.4937 235.623 99.5019 235.005 99.5182C234.386 99.5182 233.906 99.5182 233.564 99.5182L232.661 101.422C232.27 102.204 231.937 102.887 231.66 103.473C231.383 104.043 231.156 104.547 230.977 104.987C230.797 105.426 230.667 105.809 230.586 106.134C230.504 106.444 230.464 106.737 230.464 107.013C230.464 107.192 230.472 107.331 230.488 107.428C230.504 107.51 230.529 107.575 230.561 107.624V107.721H226.265V107.624C226.379 107.51 226.558 107.266 226.802 106.891C227.046 106.501 227.323 106.029 227.632 105.475C227.957 104.922 228.299 104.295 228.657 103.595C229.032 102.895 229.398 102.171 229.756 101.422L239.717 80.8658H241.548L251.313 101.422C251.688 102.204 252.062 102.952 252.436 103.669C252.827 104.385 253.185 105.028 253.511 105.597C253.836 106.151 254.121 106.615 254.365 106.989C254.609 107.347 254.772 107.559 254.853 107.624V107.721H248.603C248.636 107.591 248.652 107.477 248.652 107.379C248.652 107.266 248.652 107.143 248.652 107.013C248.652 106.655 248.571 106.224 248.408 105.719C248.262 105.215 248.074 104.702 247.847 104.181C247.635 103.644 247.407 103.131 247.163 102.643C246.935 102.155 246.748 101.748 246.602 101.422L245.649 99.4693ZM234.517 97.565H236.006C236.689 97.565 237.414 97.565 238.179 97.565C238.96 97.5488 239.741 97.5406 240.522 97.5406C241.304 97.5406 242.06 97.5406 242.793 97.5406C243.525 97.5243 244.185 97.5162 244.77 97.5162L239.717 86.7252L234.517 97.565ZM262.788 105.817C264.302 105.817 265.693 105.76 266.963 105.646C268.249 105.516 269.372 105.378 270.332 105.231C271.455 105.052 272.472 104.849 273.384 104.621L272.822 107.868C272.594 107.851 272.204 107.827 271.65 107.795C271.113 107.778 270.544 107.762 269.941 107.746C269.339 107.746 268.778 107.738 268.257 107.721C267.736 107.721 267.378 107.721 267.183 107.721H257.832V107.624C257.946 107.282 258.044 106.842 258.125 106.305C258.223 105.768 258.296 105.109 258.345 104.328C258.41 103.53 258.459 102.586 258.491 101.496C258.524 100.405 258.54 99.1275 258.54 97.6627V91.5103C258.54 90.0455 258.524 88.776 258.491 87.7018C258.459 86.6113 258.41 85.6754 258.345 84.8941C258.296 84.0966 258.223 83.4293 258.125 82.8922C258.044 82.3551 257.946 81.9156 257.832 81.5738V81.4762H263.472V81.5738C263.358 81.9156 263.26 82.3551 263.179 82.8922C263.097 83.4293 263.024 84.0966 262.959 84.8941C262.91 85.6754 262.869 86.6113 262.837 87.7018C262.804 88.776 262.788 90.0455 262.788 91.5103V105.817ZM293.55 99.4693C293.11 99.4693 292.557 99.4693 291.89 99.4693C291.239 99.4693 290.522 99.4693 289.741 99.4693C288.96 99.4693 288.154 99.4693 287.324 99.4693C286.494 99.4693 285.705 99.4775 284.956 99.4937C284.207 99.4937 283.524 99.5019 282.905 99.5182C282.287 99.5182 281.807 99.5182 281.465 99.5182L280.561 101.422C280.171 102.204 279.837 102.887 279.56 103.473C279.284 104.043 279.056 104.547 278.877 104.987C278.698 105.426 278.568 105.809 278.486 106.134C278.405 106.444 278.364 106.737 278.364 107.013C278.364 107.192 278.372 107.331 278.389 107.428C278.405 107.51 278.429 107.575 278.462 107.624V107.721H274.165V107.624C274.279 107.51 274.458 107.266 274.702 106.891C274.946 106.501 275.223 106.029 275.532 105.475C275.858 104.922 276.199 104.295 276.558 103.595C276.932 102.895 277.298 102.171 277.656 101.422L287.617 80.8658H289.448L299.214 101.422C299.588 102.204 299.963 102.952 300.337 103.669C300.727 104.385 301.086 105.028 301.411 105.597C301.737 106.151 302.021 106.615 302.266 106.989C302.51 107.347 302.672 107.559 302.754 107.624V107.721H296.504C296.536 107.591 296.553 107.477 296.553 107.379C296.553 107.266 296.553 107.143 296.553 107.013C296.553 106.655 296.471 106.224 296.309 105.719C296.162 105.215 295.975 104.702 295.747 104.181C295.535 103.644 295.308 103.131 295.063 102.643C294.836 102.155 294.648 101.748 294.502 101.422L293.55 99.4693ZM282.417 97.565H283.906C284.59 97.565 285.314 97.565 286.079 97.565C286.86 97.5488 287.642 97.5406 288.423 97.5406C289.204 97.5406 289.961 97.5406 290.693 97.5406C291.426 97.5243 292.085 97.5162 292.671 97.5162L287.617 86.7252L282.417 97.565ZM326.167 98.1754C326.167 99.5588 326.183 100.771 326.216 101.813C326.265 102.838 326.313 103.726 326.362 104.474C326.427 105.223 326.501 105.85 326.582 106.354C326.68 106.859 326.777 107.282 326.875 107.624V107.721H321.016V107.624C321.113 107.282 321.203 106.859 321.284 106.354C321.382 105.85 321.463 105.223 321.528 104.474C321.593 103.726 321.642 102.838 321.675 101.813C321.707 100.771 321.724 99.5588 321.724 98.1754V82.2818C321.724 80.8984 321.707 79.6939 321.675 78.6685C321.642 77.6269 321.593 76.7317 321.528 75.983C321.463 75.218 321.382 74.5833 321.284 74.0787C321.203 73.5741 321.113 73.151 321.016 72.8092V72.7115C321.341 72.7441 321.683 72.7766 322.041 72.8092C322.35 72.8417 322.692 72.8661 323.066 72.8824C323.457 72.8824 323.856 72.8824 324.263 72.8824C324.897 72.8824 325.752 72.8092 326.826 72.6627C327.917 72.4999 329.3 72.4185 330.977 72.4185C332.539 72.4185 333.979 72.6301 335.298 73.0533C336.632 73.4765 337.788 74.095 338.765 74.9088C339.741 75.7226 340.498 76.7236 341.035 77.9117C341.588 79.0836 341.865 80.4182 341.865 81.9156C341.865 83.0875 341.711 84.178 341.401 85.1871C341.108 86.1799 340.685 87.0833 340.132 87.8971C339.595 88.7109 338.944 89.4352 338.179 90.0699C337.414 90.6884 336.559 91.2092 335.615 91.6324L344.185 103.669C344.608 104.271 344.998 104.792 345.356 105.231C345.731 105.671 346.081 106.045 346.406 106.354C346.748 106.663 347.074 106.924 347.383 107.135C347.692 107.331 348.009 107.493 348.335 107.624V107.721H341.279C341.23 107.412 341.068 107.005 340.791 106.501C340.531 105.98 340.221 105.467 339.863 104.962L331.221 92.7799C330.423 92.8613 329.601 92.9019 328.755 92.9019C327.908 92.9019 327.046 92.8287 326.167 92.6822V98.1754ZM326.167 90.7779C327.762 91.0709 329.219 91.1116 330.537 90.9C331.872 90.6884 333.011 90.2245 333.955 89.5084C334.915 88.7922 335.656 87.8238 336.177 86.6031C336.714 85.3661 336.982 83.8687 336.982 82.1109C336.982 80.8902 336.844 79.7835 336.567 78.7906C336.291 77.7978 335.876 76.9596 335.322 76.276C334.785 75.5761 334.102 75.039 333.271 74.6646C332.441 74.274 331.473 74.0787 330.366 74.0787C329.666 74.0787 329.056 74.1113 328.535 74.1764C328.014 74.2252 327.575 74.2822 327.217 74.3473C326.794 74.4286 326.444 74.5182 326.167 74.6158V90.7779ZM348.628 94.5133C348.628 92.5927 348.986 90.8105 349.702 89.1666C350.435 87.5227 351.427 86.0986 352.681 84.8941C353.934 83.6734 355.415 82.7213 357.124 82.0377C358.833 81.3541 360.664 81.0123 362.617 81.0123C364.538 81.0123 366.344 81.3378 368.037 81.9889C369.746 82.6236 371.227 83.5351 372.48 84.7232C373.75 85.9114 374.751 87.3518 375.483 89.0445C376.216 90.7372 376.582 92.6334 376.582 94.733C376.582 96.4745 376.273 98.1591 375.654 99.7867C375.036 101.398 374.132 102.83 372.944 104.084C371.756 105.321 370.291 106.313 368.55 107.062C366.808 107.795 364.814 108.161 362.568 108.161C360.664 108.161 358.865 107.843 357.173 107.209C355.48 106.574 353.999 105.671 352.729 104.499C351.46 103.31 350.459 101.878 349.727 100.202C348.994 98.509 348.628 96.6129 348.628 94.5133ZM363.179 106.427C364.416 106.427 365.555 106.183 366.597 105.695C367.638 105.207 368.533 104.507 369.282 103.595C370.047 102.684 370.633 101.577 371.04 100.275C371.463 98.9566 371.675 97.4755 371.675 95.8316C371.675 93.9599 371.471 92.2265 371.064 90.6314C370.674 89.0364 370.072 87.6611 369.258 86.5055C368.46 85.3336 367.459 84.4221 366.255 83.7711C365.05 83.1038 363.643 82.7701 362.031 82.7701C360.794 82.7701 359.655 83.0061 358.613 83.4781C357.572 83.9501 356.668 84.6337 355.903 85.5289C355.155 86.4241 354.569 87.5227 354.145 88.8248C353.722 90.1269 353.511 91.608 353.511 93.2682C353.511 95.1236 353.714 96.857 354.121 98.4684C354.544 100.063 355.155 101.455 355.952 102.643C356.766 103.815 357.775 104.743 358.979 105.426C360.184 106.094 361.584 106.427 363.179 106.427ZM393.452 86.5787H392.964C392.866 86.302 392.703 85.9521 392.476 85.5289C392.264 85.1057 391.971 84.6907 391.597 84.2838C391.239 83.8769 390.791 83.5351 390.254 83.2584C389.717 82.9654 389.074 82.8189 388.325 82.8189C387.755 82.8189 387.243 82.9166 386.787 83.1119C386.348 83.2909 385.973 83.5432 385.664 83.8687C385.355 84.1943 385.119 84.5849 384.956 85.0406C384.793 85.4801 384.712 85.9602 384.712 86.481C384.712 87.3274 384.964 88.1331 385.469 88.898C385.99 89.663 386.632 90.428 387.397 91.193C388.162 91.9417 388.992 92.6985 389.888 93.4635C390.783 94.2284 391.613 95.026 392.378 95.856C393.143 96.6861 393.778 97.565 394.282 98.4928C394.803 99.4205 395.063 100.413 395.063 101.471C395.063 102.253 394.917 103.058 394.624 103.888C394.347 104.718 393.892 105.467 393.257 106.134C392.622 106.802 391.808 107.347 390.815 107.77C389.823 108.21 388.618 108.429 387.202 108.429C386.421 108.429 385.672 108.364 384.956 108.234C384.256 108.104 383.605 107.941 383.003 107.746C382.417 107.567 381.888 107.371 381.416 107.16C380.96 106.932 380.578 106.72 380.268 106.525L380.708 101.911H381.221C381.383 102.48 381.619 103.05 381.929 103.62C382.254 104.189 382.645 104.71 383.101 105.182C383.573 105.638 384.118 106.012 384.736 106.305C385.371 106.582 386.095 106.72 386.909 106.72C387.479 106.72 388.016 106.631 388.52 106.452C389.025 106.256 389.456 105.988 389.814 105.646C390.189 105.304 390.482 104.889 390.693 104.401C390.905 103.896 391.011 103.335 391.011 102.716C391.011 101.984 390.864 101.309 390.571 100.69C390.278 100.055 389.888 99.4531 389.399 98.8834C388.911 98.2975 388.358 97.7359 387.739 97.1988C387.137 96.6617 386.51 96.1165 385.859 95.5631C385.208 95.0097 384.574 94.4482 383.955 93.8785C383.353 93.2926 382.808 92.6659 382.319 91.9986C381.831 91.3313 381.44 90.6233 381.147 89.8746C380.854 89.1096 380.708 88.2714 380.708 87.36C380.708 86.3997 380.911 85.537 381.318 84.7721C381.725 84.0071 382.262 83.3642 382.93 82.8434C383.597 82.3062 384.362 81.8993 385.225 81.6227C386.087 81.3297 386.982 81.1832 387.91 81.1832C388.594 81.1832 389.228 81.232 389.814 81.3297C390.417 81.4273 390.954 81.5494 391.426 81.6959C391.914 81.8261 392.337 81.9644 392.695 82.1109C393.053 82.2411 393.346 82.3469 393.574 82.4283L393.452 86.5787ZM416.108 99.4693C415.669 99.4693 415.115 99.4693 414.448 99.4693C413.797 99.4693 413.081 99.4693 412.3 99.4693C411.518 99.4693 410.713 99.4693 409.883 99.4693C409.053 99.4693 408.263 99.4775 407.515 99.4937C406.766 99.4937 406.082 99.5019 405.464 99.5182C404.845 99.5182 404.365 99.5182 404.023 99.5182L403.12 101.422C402.729 102.204 402.396 102.887 402.119 103.473C401.842 104.043 401.615 104.547 401.435 104.987C401.256 105.426 401.126 105.809 401.045 106.134C400.963 106.444 400.923 106.737 400.923 107.013C400.923 107.192 400.931 107.331 400.947 107.428C400.963 107.51 400.988 107.575 401.02 107.624V107.721H396.724V107.624C396.838 107.51 397.017 107.266 397.261 106.891C397.505 106.501 397.782 106.029 398.091 105.475C398.416 104.922 398.758 104.295 399.116 103.595C399.49 102.895 399.857 102.171 400.215 101.422L410.176 80.8658H412.007L421.772 101.422C422.147 102.204 422.521 102.952 422.895 103.669C423.286 104.385 423.644 105.028 423.97 105.597C424.295 106.151 424.58 106.615 424.824 106.989C425.068 107.347 425.231 107.559 425.312 107.624V107.721H419.062C419.095 107.591 419.111 107.477 419.111 107.379C419.111 107.266 419.111 107.143 419.111 107.013C419.111 106.655 419.03 106.224 418.867 105.719C418.721 105.215 418.533 104.702 418.306 104.181C418.094 103.644 417.866 103.131 417.622 102.643C417.394 102.155 417.207 101.748 417.06 101.422L416.108 99.4693ZM404.976 97.565H406.465C407.148 97.565 407.873 97.565 408.638 97.565C409.419 97.5488 410.2 97.5406 410.981 97.5406C411.763 97.5406 412.519 97.5406 413.252 97.5406C413.984 97.5243 414.643 97.5162 415.229 97.5162L410.176 86.7252L404.976 97.565Z" fill="#AC6905" fill-opacity="0.5"/>
</g>
<g filter="url(#filter1_i_3_5)">
<path d="M166.507 91.9468C168.261 92.2691 169.864 92.3049 171.314 92.0543C172.782 91.7857 174.035 91.2307 175.074 90.3892C176.13 89.5298 176.945 88.3751 177.518 86.9249C178.108 85.4747 178.404 83.7022 178.404 81.6075C178.404 80.1573 178.252 78.8414 177.947 77.6597C177.643 76.4602 177.186 75.4486 176.578 74.6251C175.987 73.7836 175.235 73.1391 174.322 72.6915C173.409 72.226 172.343 71.9932 171.126 71.9932C170.356 71.9932 169.685 72.029 169.112 72.1006C168.539 72.1544 168.056 72.217 167.662 72.2886C167.196 72.3782 166.811 72.4766 166.507 72.584V91.9468ZM160.84 70.4893C161.198 70.5251 161.574 70.5609 161.968 70.5967C162.308 70.6325 162.684 70.6594 163.096 70.6773C163.526 70.6773 163.965 70.6773 164.412 70.6773C165.11 70.6773 166.05 70.5967 167.232 70.4356C168.431 70.2566 169.953 70.1671 171.797 70.1671C173.516 70.1671 175.101 70.4177 176.551 70.919C178.019 71.4203 179.29 72.1544 180.364 73.1212C181.438 74.088 182.271 75.2696 182.862 76.6661C183.471 78.0447 183.775 79.6202 183.775 81.3926C183.775 83.7738 183.3 85.8327 182.352 87.5694C181.403 89.3061 180.132 90.7115 178.538 91.7857C176.945 92.8599 175.11 93.594 173.033 93.9879C170.956 94.3638 168.781 94.3817 166.507 94.0416V98.4996C166.507 100.021 166.525 101.355 166.561 102.501C166.614 103.629 166.668 104.605 166.722 105.428C166.793 106.252 166.874 106.941 166.963 107.496C167.071 108.051 167.178 108.517 167.286 108.893V109H160.84V108.893C160.948 108.517 161.046 108.051 161.136 107.496C161.243 106.941 161.333 106.252 161.404 105.428C161.476 104.605 161.53 103.629 161.565 102.501C161.601 101.355 161.619 100.021 161.619 98.4996V81.0167C161.619 79.4949 161.601 78.17 161.565 77.0421C161.53 75.8962 161.476 74.9115 161.404 74.088C161.333 73.2465 161.243 72.5482 161.136 71.9932C161.046 71.4382 160.948 70.9727 160.84 70.5967V70.4893ZM200.237 109.483C198.25 109.483 196.388 109.17 194.651 108.544C192.915 107.917 191.402 107.004 190.113 105.804C188.824 104.587 187.803 103.092 187.051 101.319C186.317 99.529 185.95 97.488 185.95 95.1964C185.95 93.1732 186.29 91.3023 186.971 89.5836C187.651 87.8469 188.591 86.343 189.791 85.0718C190.99 83.8007 192.387 82.807 193.98 82.0909C195.591 81.3747 197.328 81.0167 199.19 81.0167C201.034 81.0167 202.744 81.3389 204.319 81.9835C205.895 82.6101 207.256 83.5321 208.401 84.7496C209.565 85.9491 210.478 87.4441 211.141 89.2344C211.821 91.0069 212.188 93.03 212.242 95.3038C210.219 95.268 208.195 95.2411 206.172 95.2232C204.149 95.2053 202.046 95.1964 199.861 95.1964C198.304 95.1964 196.782 95.2053 195.296 95.2232C193.828 95.2411 192.503 95.268 191.321 95.3038C191.429 97.1658 191.715 98.8487 192.181 100.353C192.664 101.857 193.318 103.146 194.141 104.22C194.983 105.276 195.994 106.091 197.176 106.664C198.375 107.237 199.727 107.523 201.231 107.523C202.269 107.523 203.245 107.407 204.158 107.174C205.089 106.923 205.931 106.583 206.683 106.153C207.435 105.724 208.106 105.222 208.697 104.649C209.288 104.059 209.789 103.423 210.201 102.743L210.523 102.904L208.536 107.684C207.569 108.185 206.414 108.615 205.071 108.973C203.729 109.313 202.117 109.483 200.237 109.483ZM196.666 93.1016C198.456 93.1016 200.246 93.1016 202.037 93.1016C203.845 93.0837 205.483 93.0479 206.951 92.9942C206.79 91.4366 206.486 90.0401 206.038 88.8047C205.59 87.5694 205.018 86.522 204.319 85.6627C203.621 84.8033 202.798 84.1408 201.849 83.6754C200.9 83.2099 199.852 82.9771 198.707 82.9771C197.668 82.9771 196.71 83.2099 195.833 83.6754C194.974 84.1229 194.222 84.7764 193.577 85.6358C192.933 86.4952 192.413 87.5515 192.02 88.8047C191.626 90.0401 191.393 91.4545 191.321 93.0479C192.127 93.0837 192.977 93.1016 193.873 93.1016C194.768 93.1016 195.699 93.1016 196.666 93.1016ZM205.662 73.524C204.337 73.9716 202.994 74.446 201.634 74.9473C201.043 75.1622 200.425 75.3949 199.781 75.6456C199.136 75.8962 198.483 76.1648 197.82 76.4512C197.158 76.7377 196.486 77.0331 195.806 77.3375C195.144 77.6239 194.508 77.9283 193.899 78.2505L193.309 77.2569C194.472 76.487 195.627 75.6456 196.773 74.7325C197.937 73.8194 199.002 72.96 199.969 72.1544C201.079 71.2234 202.153 70.2834 203.191 69.3345L205.662 73.524ZM227.737 107.416C228.274 107.416 228.803 107.317 229.322 107.12C229.859 106.923 230.369 106.655 230.853 106.315C231.354 105.974 231.828 105.589 232.276 105.16C232.741 104.712 233.171 104.247 233.565 103.763L233.833 103.898L232.088 108.221C231.873 108.329 231.604 108.463 231.282 108.624C230.978 108.767 230.602 108.902 230.154 109.027C229.725 109.17 229.214 109.287 228.624 109.376C228.033 109.483 227.334 109.537 226.529 109.537C224.13 109.537 222.259 108.893 220.916 107.604C219.591 106.297 218.929 104.265 218.929 101.507V83.5948L214.417 83.7559V81.3926C214.972 81.4284 215.634 81.4553 216.404 81.4732C217.174 81.4911 218.016 81.5001 218.929 81.5001C218.911 80.2289 218.875 79.1099 218.821 78.1431C218.785 77.1584 218.732 76.308 218.66 75.5919C218.606 74.8578 218.535 74.2401 218.445 73.7388C218.356 73.2375 218.266 72.8168 218.177 72.4766V72.3692H224.38V72.4766C224.273 72.8168 224.174 73.2375 224.085 73.7388C223.995 74.2401 223.915 74.8489 223.843 75.565C223.79 76.2811 223.736 77.1316 223.682 78.1163C223.646 79.0831 223.619 80.211 223.602 81.5001C224.729 81.4822 225.831 81.4643 226.905 81.4464C227.997 81.4105 228.982 81.3747 229.859 81.3389C230.754 81.2852 231.506 81.2405 232.115 81.2047C232.741 81.1509 233.153 81.1062 233.35 81.0704L232.867 83.8096C231.954 83.7917 230.996 83.7649 229.993 83.7291C229.134 83.6933 228.149 83.6664 227.039 83.6485C225.929 83.6306 224.783 83.6127 223.602 83.5948V102.071C223.602 103.181 223.718 104.086 223.951 104.784C224.201 105.464 224.515 106.001 224.891 106.395C225.285 106.789 225.723 107.058 226.207 107.201C226.708 107.344 227.218 107.416 227.737 107.416ZM236.976 101.078C236.976 99.6633 237.262 98.4369 237.835 97.3985C238.426 96.3601 239.205 95.4739 240.171 94.7398C241.138 94.0058 242.239 93.4149 243.475 92.9673C244.71 92.5019 245.99 92.1438 247.315 91.8931C248.64 91.6246 249.947 91.4455 251.236 91.356C252.525 91.2486 253.707 91.1859 254.781 91.168V89.7984C254.781 88.6168 254.629 87.5963 254.324 86.7369C254.02 85.8775 253.59 85.1703 253.035 84.6153C252.48 84.0424 251.809 83.6216 251.021 83.3531C250.251 83.0666 249.401 82.9234 248.47 82.9234C247.825 82.9234 247.19 82.9771 246.563 83.0845C245.936 83.192 245.283 83.371 244.603 83.6216C243.94 83.8723 243.233 84.2125 242.481 84.6422C241.747 85.0718 240.95 85.6179 240.091 86.2803L239.822 86.1192L241.648 82.3326C242.239 82.064 242.821 81.8492 243.394 81.688C243.967 81.509 244.549 81.3658 245.14 81.2584C245.73 81.1509 246.33 81.0793 246.939 81.0435C247.566 80.9898 248.219 80.963 248.899 80.963C250.779 80.963 252.382 81.1957 253.707 81.6612C255.049 82.1088 256.141 82.7354 256.983 83.5411C257.842 84.3288 258.469 85.2598 258.863 86.334C259.257 87.3904 259.454 88.5272 259.454 89.7447V98.4996C259.454 100.021 259.472 101.355 259.507 102.501C259.561 103.629 259.615 104.605 259.668 105.428C259.74 106.252 259.821 106.941 259.91 107.496C260.018 108.051 260.125 108.517 260.232 108.893V109H254.297V108.893C254.387 108.606 254.45 108.284 254.485 107.926C254.539 107.568 254.584 107.138 254.62 106.637C254.244 106.959 253.796 107.29 253.277 107.63C252.776 107.971 252.194 108.284 251.531 108.57C250.887 108.839 250.162 109.054 249.356 109.215C248.568 109.394 247.7 109.483 246.751 109.483C243.636 109.483 241.228 108.758 239.527 107.308C237.826 105.84 236.976 103.763 236.976 101.078ZM254.781 93.2628C253.152 93.2807 251.585 93.3791 250.081 93.5582C248.577 93.7193 247.243 94.0684 246.08 94.6055C244.934 95.1426 244.012 95.9125 243.313 96.9151C242.633 97.8998 242.293 99.2157 242.293 100.863C242.293 102.975 242.821 104.587 243.877 105.697C244.934 106.807 246.393 107.362 248.255 107.362C249.114 107.362 249.893 107.246 250.591 107.013C251.307 106.762 251.934 106.458 252.471 106.1C253.026 105.724 253.492 105.321 253.868 104.891C254.244 104.444 254.53 104.014 254.727 103.602C254.763 102.922 254.781 102.17 254.781 101.346C254.781 100.505 254.781 99.5559 254.781 98.4996V93.2628ZM267.752 79.3516C267.752 77.8298 267.725 76.5049 267.671 75.377C267.636 74.2312 267.582 73.2465 267.51 72.4229C267.457 71.5993 267.376 70.9101 267.269 70.355C267.179 69.8 267.081 69.3345 266.973 68.9586V68.8511H273.177V68.9586C273.069 69.3345 272.971 69.8 272.881 70.355C272.792 70.9101 272.711 71.5993 272.64 72.4229C272.568 73.2465 272.514 74.2312 272.479 75.377C272.443 76.5049 272.425 77.8298 272.425 79.3516V98.4996C272.425 100.021 272.443 101.355 272.479 102.501C272.514 103.629 272.568 104.605 272.64 105.428C272.711 106.252 272.792 106.941 272.881 107.496C272.971 108.051 273.069 108.517 273.177 108.893V109H266.973V108.893C267.081 108.517 267.179 108.051 267.269 107.496C267.376 106.941 267.457 106.252 267.51 105.428C267.582 104.605 267.636 103.629 267.671 102.501C267.725 101.355 267.752 100.021 267.752 98.4996V79.3516ZM278.709 101.078C278.709 99.6633 278.995 98.4369 279.568 97.3985C280.159 96.3601 280.938 95.4739 281.905 94.7398C282.872 94.0058 283.973 93.4149 285.208 92.9673C286.443 92.5019 287.723 92.1438 289.048 91.8931C290.373 91.6246 291.68 91.4455 292.969 91.356C294.258 91.2486 295.44 91.1859 296.514 91.168V89.7984C296.514 88.6168 296.362 87.5963 296.058 86.7369C295.753 85.8775 295.324 85.1703 294.769 84.6153C294.214 84.0424 293.542 83.6216 292.754 83.3531C291.985 83.0666 291.134 82.9234 290.203 82.9234C289.559 82.9234 288.923 82.9771 288.296 83.0845C287.67 83.192 287.016 83.371 286.336 83.6216C285.674 83.8723 284.966 84.2125 284.214 84.6422C283.48 85.0718 282.684 85.6179 281.824 86.2803L281.556 86.1192L283.382 82.3326C283.973 82.064 284.555 81.8492 285.127 81.688C285.7 81.509 286.282 81.3658 286.873 81.2584C287.464 81.1509 288.064 81.0793 288.672 81.0435C289.299 80.9898 289.952 80.963 290.633 80.963C292.513 80.963 294.115 81.1957 295.44 81.6612C296.783 82.1088 297.875 82.7354 298.716 83.5411C299.576 84.3288 300.202 85.2598 300.596 86.334C300.99 87.3904 301.187 88.5272 301.187 89.7447V98.4996C301.187 100.021 301.205 101.355 301.241 102.501C301.294 103.629 301.348 104.605 301.402 105.428C301.473 106.252 301.554 106.941 301.644 107.496C301.751 108.051 301.858 108.517 301.966 108.893V109H296.031V108.893C296.12 108.606 296.183 108.284 296.219 107.926C296.272 107.568 296.317 107.138 296.353 106.637C295.977 106.959 295.529 107.29 295.01 107.63C294.509 107.971 293.927 108.284 293.265 108.57C292.62 108.839 291.895 109.054 291.089 109.215C290.302 109.394 289.433 109.483 288.484 109.483C285.369 109.483 282.961 108.758 281.26 107.308C279.559 105.84 278.709 103.763 278.709 101.078ZM296.514 93.2628C294.885 93.2807 293.318 93.3791 291.814 93.5582C290.311 93.7193 288.977 94.0684 287.813 94.6055C286.667 95.1426 285.745 95.9125 285.047 96.9151C284.367 97.8998 284.026 99.2157 284.026 100.863C284.026 102.975 284.555 104.587 285.611 105.697C286.667 106.807 288.126 107.362 289.988 107.362C290.848 107.362 291.626 107.246 292.325 107.013C293.041 106.762 293.667 106.458 294.205 106.1C294.76 105.724 295.225 105.321 295.601 104.891C295.977 104.444 296.264 104.014 296.46 103.602C296.496 102.922 296.514 102.17 296.514 101.346C296.514 100.505 296.514 99.5559 296.514 98.4996V93.2628ZM331.185 98.4996C331.185 100.021 331.202 101.355 331.238 102.501C331.292 103.629 331.346 104.605 331.399 105.428C331.471 106.252 331.552 106.941 331.641 107.496C331.749 108.051 331.856 108.517 331.963 108.893V109H325.518V108.893C325.625 108.517 325.724 108.051 325.813 107.496C325.921 106.941 326.001 106.252 326.055 105.428C326.127 104.605 326.181 103.629 326.216 102.501C326.27 101.373 326.297 100.039 326.297 98.4996V81.0167C326.297 79.4949 326.27 78.17 326.216 77.0421C326.181 75.8962 326.127 74.9115 326.055 74.088C326.001 73.2644 325.921 72.5751 325.813 72.0201C325.724 71.4472 325.625 70.9727 325.518 70.5967V70.4893L326.646 70.5967C326.986 70.6325 327.362 70.6594 327.774 70.6773C328.204 70.6773 328.642 70.6773 329.09 70.6773C329.788 70.6773 330.728 70.5967 331.91 70.4356C333.109 70.2566 334.631 70.1671 336.475 70.1671C338.194 70.1671 339.778 70.3998 341.229 70.8653C342.697 71.3308 343.968 72.0111 345.042 72.9063C346.116 73.8015 346.949 74.9026 347.54 76.2095C348.148 77.4986 348.453 78.9667 348.453 80.6138C348.453 81.9029 348.283 83.1024 347.942 84.2125C347.62 85.3046 347.155 86.2982 346.546 87.1934C345.955 88.0886 345.239 88.8853 344.397 89.5836C343.556 90.2639 342.616 90.8368 341.578 91.3023L351.004 104.542C351.469 105.204 351.899 105.777 352.293 106.261C352.705 106.744 353.09 107.165 353.448 107.523C353.824 107.863 354.182 108.15 354.522 108.382C354.862 108.597 355.211 108.767 355.569 108.893V109H347.808C347.754 108.66 347.575 108.212 347.271 107.657C346.985 107.084 346.644 106.52 346.25 105.965L336.744 92.5645C336.332 92.6003 335.92 92.6361 335.508 92.6719C335.097 92.6898 334.676 92.6988 334.246 92.6988C333.745 92.6988 333.235 92.6809 332.715 92.6451C332.214 92.6093 331.704 92.5466 331.185 92.4571V98.4996ZM331.185 90.3624C331.668 90.4698 332.16 90.5504 332.662 90.6041C333.163 90.6399 333.646 90.6578 334.112 90.6578C335.455 90.6578 336.681 90.4608 337.791 90.067C338.901 89.6552 339.841 89.0375 340.611 88.2139C341.399 87.3904 342.007 86.3699 342.437 85.1524C342.867 83.9171 343.082 82.4758 343.082 80.8287C343.082 79.4859 342.929 78.2685 342.625 77.1763C342.321 76.0842 341.864 75.1622 341.255 74.4102C340.665 73.6404 339.913 73.0495 339 72.6378C338.086 72.2081 337.021 71.9932 335.804 71.9932C334.568 71.9932 333.584 72.0559 332.85 72.1812C332.116 72.3065 331.561 72.4408 331.185 72.584V90.3624ZM356.053 95.1964C356.053 93.1732 356.429 91.3023 357.181 89.5836C357.933 87.8469 358.962 86.343 360.269 85.0718C361.594 83.8007 363.152 82.807 364.942 82.0909C366.732 81.3747 368.657 81.0167 370.716 81.0167C372.739 81.0167 374.637 81.3568 376.409 82.0372C378.2 82.6996 379.757 83.6485 381.082 84.8839C382.407 86.1192 383.445 87.6231 384.197 89.3956C384.967 91.168 385.352 93.1553 385.352 95.3575C385.352 97.2016 385.03 98.974 384.385 100.675C383.741 102.376 382.792 103.88 381.539 105.187C380.285 106.494 378.746 107.541 376.919 108.329C375.111 109.099 373.025 109.483 370.662 109.483C368.657 109.483 366.768 109.152 364.996 108.49C363.223 107.827 361.674 106.878 360.35 105.643C359.025 104.408 357.977 102.913 357.208 101.158C356.438 99.3858 356.053 97.3985 356.053 95.1964ZM371.28 107.523C372.551 107.523 373.715 107.272 374.771 106.771C375.845 106.27 376.767 105.545 377.537 104.596C378.307 103.647 378.907 102.492 379.336 101.131C379.766 99.7707 379.981 98.231 379.981 96.5123C379.981 94.5787 379.775 92.7883 379.363 91.1412C378.951 89.4761 378.334 88.0438 377.51 86.8443C376.705 85.6269 375.684 84.678 374.449 83.9976C373.213 83.3173 371.772 82.9771 370.125 82.9771C368.854 82.9771 367.69 83.2278 366.634 83.7291C365.577 84.2125 364.655 84.9197 363.868 85.8506C363.098 86.7816 362.498 87.9275 362.068 89.2881C361.639 90.6309 361.424 92.1617 361.424 93.8804C361.424 95.814 361.63 97.6133 362.042 99.2784C362.471 100.943 363.098 102.394 363.921 103.629C364.745 104.846 365.765 105.804 366.983 106.503C368.218 107.183 369.651 107.523 371.28 107.523ZM403.533 86.898L403.157 86.9517C403.032 86.5399 402.826 86.1013 402.54 85.6358C402.271 85.1703 401.913 84.7406 401.465 84.3467C401.036 83.9529 400.507 83.6306 399.881 83.3799C399.272 83.1114 398.565 82.9771 397.759 82.9771C397.204 82.9771 396.676 83.0577 396.175 83.2188C395.691 83.3799 395.262 83.6216 394.886 83.9439C394.528 84.2483 394.241 84.6332 394.026 85.0987C393.812 85.5642 393.704 86.1102 393.704 86.7369C393.704 87.6142 393.973 88.4556 394.51 89.2613C395.065 90.0491 395.754 90.8368 396.578 91.6246C397.401 92.3944 398.287 93.1732 399.236 93.961C400.203 94.7488 401.098 95.5723 401.922 96.4317C402.745 97.2911 403.426 98.2131 403.963 99.1978C404.518 100.165 404.795 101.212 404.795 102.34C404.795 103.253 404.634 104.148 404.312 105.025C403.99 105.885 403.488 106.655 402.808 107.335C402.146 108.015 401.286 108.57 400.23 109C399.192 109.412 397.947 109.618 396.497 109.618C395.638 109.618 394.832 109.537 394.08 109.376C393.346 109.215 392.666 109.018 392.039 108.785C391.43 108.535 390.875 108.266 390.374 107.98C389.891 107.675 389.461 107.389 389.085 107.12L389.354 102.018H389.783C389.962 102.859 390.231 103.629 390.589 104.327C390.947 105.025 391.386 105.625 391.905 106.127C392.442 106.61 393.051 106.995 393.731 107.281C394.411 107.55 395.154 107.684 395.96 107.684C397.285 107.684 398.332 107.317 399.102 106.583C399.89 105.849 400.284 104.891 400.284 103.71C400.284 102.761 400.015 101.892 399.478 101.105C398.959 100.299 398.296 99.529 397.491 98.795C396.685 98.0609 395.817 97.3269 394.886 96.5928C393.973 95.8588 393.113 95.08 392.308 94.2564C391.502 93.4149 390.831 92.5019 390.293 91.5172C389.774 90.5145 389.515 89.3777 389.515 88.1065C389.515 87.0681 389.703 86.1192 390.079 85.2598C390.472 84.3825 391.01 83.6395 391.69 83.0308C392.388 82.4042 393.212 81.9208 394.161 81.5806C395.11 81.2405 396.148 81.0704 397.276 81.0704C398.762 81.0704 399.997 81.2315 400.982 81.5538C401.985 81.8581 402.745 82.1535 403.265 82.44L403.533 86.898ZM408.743 101.078C408.743 99.6633 409.03 98.4369 409.603 97.3985C410.193 96.3601 410.972 95.4739 411.939 94.7398C412.906 94.0058 414.007 93.4149 415.242 92.9673C416.478 92.5019 417.758 92.1438 419.083 91.8931C420.407 91.6246 421.714 91.4455 423.003 91.356C424.292 91.2486 425.474 91.1859 426.548 91.168V89.7984C426.548 88.6168 426.396 87.5963 426.092 86.7369C425.787 85.8775 425.358 85.1703 424.803 84.6153C424.248 84.0424 423.576 83.6216 422.789 83.3531C422.019 83.0666 421.168 82.9234 420.237 82.9234C419.593 82.9234 418.957 82.9771 418.331 83.0845C417.704 83.192 417.05 83.371 416.37 83.6216C415.708 83.8723 415 84.2125 414.249 84.6422C413.514 85.0718 412.718 85.6179 411.858 86.2803L411.59 86.1192L413.416 82.3326C414.007 82.064 414.589 81.8492 415.162 81.688C415.735 81.509 416.316 81.3658 416.907 81.2584C417.498 81.1509 418.098 81.0793 418.707 81.0435C419.333 80.9898 419.987 80.963 420.667 80.963C422.547 80.963 424.149 81.1957 425.474 81.6612C426.817 82.1088 427.909 82.7354 428.75 83.5411C429.61 84.3288 430.236 85.2598 430.63 86.334C431.024 87.3904 431.221 88.5272 431.221 89.7447V98.4996C431.221 100.021 431.239 101.355 431.275 102.501C431.329 103.629 431.382 104.605 431.436 105.428C431.508 106.252 431.588 106.941 431.678 107.496C431.785 108.051 431.893 108.517 432 108.893V109H426.065V108.893C426.154 108.606 426.217 108.284 426.253 107.926C426.307 107.568 426.351 107.138 426.387 106.637C426.011 106.959 425.564 107.29 425.044 107.63C424.543 107.971 423.961 108.284 423.299 108.57C422.654 108.839 421.929 109.054 421.124 109.215C420.336 109.394 419.467 109.483 418.519 109.483C415.403 109.483 412.995 108.758 411.294 107.308C409.594 105.84 408.743 103.763 408.743 101.078ZM426.548 93.2628C424.919 93.2807 423.353 93.3791 421.849 93.5582C420.345 93.7193 419.011 94.0684 417.847 94.6055C416.701 95.1426 415.779 95.9125 415.081 96.9151C414.401 97.8998 414.061 99.2157 414.061 100.863C414.061 102.975 414.589 104.587 415.645 105.697C416.701 106.807 418.16 107.362 420.022 107.362C420.882 107.362 421.661 107.246 422.359 107.013C423.075 106.762 423.702 106.458 424.239 106.1C424.794 105.724 425.259 105.321 425.635 104.891C426.011 104.444 426.298 104.014 426.495 103.602C426.53 102.922 426.548 102.17 426.548 101.346C426.548 100.505 426.548 99.5559 426.548 98.4996V93.2628Z" fill="url(#paint0_linear_3_5)"/>
</g>
<g filter="url(#filter2_f_3_5)">
<path d="M166.183 92.9396C167.779 93.2325 169.235 93.2651 170.554 93.0372C171.888 92.7931 173.028 92.2885 173.972 91.5236C174.932 90.7423 175.672 89.6925 176.193 88.3741C176.73 87.0558 176.999 85.4445 176.999 83.5402C176.999 82.2218 176.861 81.0255 176.584 79.9513C176.307 78.8608 175.892 77.9412 175.339 77.1925C174.802 76.4275 174.118 75.8416 173.288 75.4347C172.458 75.0115 171.489 74.7999 170.383 74.7999C169.683 74.7999 169.072 74.8325 168.552 74.8976C168.031 74.9464 167.591 75.0034 167.233 75.0685C166.81 75.1499 166.46 75.2394 166.183 75.337V92.9396ZM161.032 73.4327C161.358 73.4653 161.699 73.4978 162.057 73.5304C162.367 73.5629 162.709 73.5874 163.083 73.6036C163.474 73.6036 163.872 73.6036 164.279 73.6036C164.914 73.6036 165.768 73.5304 166.843 73.3839C167.933 73.2212 169.317 73.1398 170.993 73.1398C172.556 73.1398 173.996 73.3676 175.314 73.8234C176.649 74.2791 177.805 74.9464 178.781 75.8253C179.758 76.7042 180.515 77.7784 181.052 79.048C181.605 80.3012 181.882 81.7335 181.882 83.3448C181.882 85.5096 181.45 87.3813 180.588 88.9601C179.725 90.5389 178.57 91.8165 177.121 92.7931C175.672 93.7697 174.004 94.437 172.116 94.795C170.228 95.1368 168.251 95.1531 166.183 94.8439V98.8966C166.183 100.28 166.2 101.493 166.232 102.534C166.281 103.56 166.33 104.447 166.379 105.195C166.444 105.944 166.517 106.571 166.599 107.075C166.696 107.58 166.794 108.003 166.891 108.345V108.443H161.032V108.345C161.13 108.003 161.219 107.58 161.301 107.075C161.398 106.571 161.48 105.944 161.545 105.195C161.61 104.447 161.659 103.56 161.691 102.534C161.724 101.493 161.74 100.28 161.74 98.8966V83.0031C161.74 81.6196 161.724 80.4152 161.691 79.3898C161.659 78.3481 161.61 77.4529 161.545 76.7042C161.48 75.9392 161.398 75.3045 161.301 74.7999C161.219 74.2954 161.13 73.8722 161.032 73.5304V73.4327ZM186.374 82.1974C187.969 82.1974 189.605 82.1974 191.281 82.1974C192.958 82.1811 194.512 82.1648 195.944 82.1486C197.377 82.116 198.605 82.0835 199.631 82.0509C200.672 82.0184 201.356 81.9695 201.682 81.9044L200.729 84.5411C200.29 84.4272 199.793 84.3214 199.24 84.2238C198.752 84.1424 198.158 84.0691 197.458 84.004C196.774 83.9226 195.977 83.882 195.065 83.882C194.74 83.882 194.365 83.8982 193.942 83.9308C193.519 83.9471 193.112 83.9715 192.722 84.004C192.266 84.0366 191.802 84.0691 191.33 84.1017V93.7452C192.648 93.729 193.836 93.6964 194.894 93.6476C195.952 93.5988 196.856 93.5337 197.604 93.4523C198.483 93.3872 199.256 93.2976 199.924 93.1837L199.338 96.089C198.443 95.9751 197.539 95.8774 196.628 95.796C195.847 95.7146 194.984 95.6495 194.04 95.6007C193.096 95.5356 192.193 95.5031 191.33 95.5031V106.587C192.844 106.587 194.235 106.53 195.505 106.416C196.774 106.286 197.881 106.148 198.825 106.001C199.932 105.822 200.933 105.619 201.828 105.391L201.266 108.589C201.022 108.573 200.624 108.548 200.07 108.516C199.533 108.499 198.963 108.483 198.361 108.467C197.775 108.467 197.222 108.459 196.701 108.443C196.18 108.443 195.822 108.443 195.627 108.443H186.374V108.345C186.488 108.003 186.585 107.564 186.667 107.026C186.765 106.489 186.838 105.83 186.887 105.049C186.952 104.251 187.001 103.307 187.033 102.217C187.066 101.126 187.082 99.8488 187.082 98.3839V92.2316C187.082 90.7667 187.066 89.4972 187.033 88.423C187.001 87.3325 186.952 86.3966 186.887 85.6154C186.838 84.8178 186.765 84.1505 186.667 83.6134C186.585 83.0763 186.488 82.6368 186.374 82.295V82.1974ZM199.435 75.3859C198.231 75.7928 197.01 76.2241 195.773 76.6798C195.236 76.8751 194.675 77.0867 194.089 77.3146C193.503 77.5424 192.909 77.7866 192.307 78.047C191.704 78.3074 191.094 78.576 190.475 78.8527C189.873 79.1131 189.295 79.3898 188.742 79.6827L188.205 78.7794C189.263 78.0795 190.313 77.3146 191.354 76.4845C192.412 75.6544 193.381 74.8732 194.26 74.1407C195.269 73.2944 196.245 72.4399 197.189 71.5773L199.435 75.3859ZM213.986 84.004C212.505 84.004 211.154 84.0691 209.933 84.1993C208.729 84.3295 207.687 84.4679 206.808 84.6144C205.799 84.7934 204.888 84.9887 204.074 85.2003L204.562 82.0509C204.807 82.0835 205.205 82.1079 205.759 82.1241C206.312 82.1404 206.89 82.1567 207.492 82.173C208.111 82.173 208.688 82.1811 209.225 82.1974C209.779 82.1974 210.161 82.1974 210.373 82.1974H221.921C222.116 82.1974 222.474 82.1974 222.995 82.1974C223.532 82.1811 224.102 82.173 224.704 82.173C225.306 82.1567 225.884 82.1404 226.437 82.1241C226.991 82.1079 227.39 82.0835 227.634 82.0509L228.122 85.2003C227.341 84.9887 226.446 84.7934 225.436 84.6144C224.574 84.4679 223.532 84.3295 222.311 84.1993C221.107 84.0691 219.748 84.004 218.234 84.004V98.3839C218.234 99.8488 218.251 101.126 218.283 102.217C218.316 103.307 218.356 104.251 218.405 105.049C218.47 105.83 218.543 106.489 218.625 107.026C218.706 107.564 218.804 108.003 218.918 108.345V108.443H213.278V108.345C213.392 108.003 213.49 107.564 213.571 107.026C213.653 106.489 213.726 105.83 213.791 105.049C213.856 104.251 213.905 103.307 213.937 102.217C213.97 101.126 213.986 99.8488 213.986 98.3839V84.004ZM245.92 100.191C245.48 100.191 244.927 100.191 244.26 100.191C243.609 100.191 242.892 100.191 242.111 100.191C241.33 100.191 240.524 100.191 239.694 100.191C238.864 100.191 238.075 100.199 237.326 100.215C236.577 100.215 235.894 100.223 235.275 100.239C234.657 100.239 234.177 100.239 233.835 100.239L232.932 102.144C232.541 102.925 232.207 103.609 231.931 104.194C231.654 104.764 231.426 105.269 231.247 105.708C231.068 106.148 230.938 106.53 230.856 106.856C230.775 107.165 230.734 107.458 230.734 107.734C230.734 107.914 230.742 108.052 230.759 108.15C230.775 108.231 230.799 108.296 230.832 108.345V108.443H226.535V108.345C226.649 108.231 226.828 107.987 227.072 107.612C227.316 107.222 227.593 106.75 227.902 106.196C228.228 105.643 228.57 105.016 228.928 104.317C229.302 103.617 229.668 102.892 230.026 102.144L239.987 81.587H241.818L251.584 102.144C251.958 102.925 252.333 103.674 252.707 104.39C253.098 105.106 253.456 105.749 253.781 106.318C254.107 106.872 254.391 107.336 254.636 107.71C254.88 108.068 255.043 108.28 255.124 108.345V108.443H248.874C248.906 108.312 248.923 108.198 248.923 108.101C248.923 107.987 248.923 107.865 248.923 107.734C248.923 107.376 248.841 106.945 248.679 106.441C248.532 105.936 248.345 105.423 248.117 104.902C247.905 104.365 247.678 103.853 247.433 103.364C247.206 102.876 247.018 102.469 246.872 102.144L245.92 100.191ZM234.787 98.2863H236.276C236.96 98.2863 237.684 98.2863 238.449 98.2863C239.23 98.27 240.012 98.2618 240.793 98.2618C241.574 98.2618 242.331 98.2618 243.063 98.2618C243.796 98.2456 244.455 98.2374 245.041 98.2374L239.987 87.4464L234.787 98.2863ZM263.058 106.538C264.572 106.538 265.964 106.481 267.233 106.367C268.519 106.237 269.642 106.099 270.602 105.952C271.725 105.773 272.743 105.57 273.654 105.342L273.093 108.589C272.865 108.573 272.474 108.548 271.921 108.516C271.384 108.499 270.814 108.483 270.212 108.467C269.61 108.467 269.048 108.459 268.527 108.443C268.006 108.443 267.648 108.443 267.453 108.443H258.102V108.345C258.216 108.003 258.314 107.564 258.395 107.026C258.493 106.489 258.566 105.83 258.615 105.049C258.68 104.251 258.729 103.307 258.762 102.217C258.794 101.126 258.81 99.8488 258.81 98.3839V92.2316C258.81 90.7667 258.794 89.4972 258.762 88.423C258.729 87.3325 258.68 86.3966 258.615 85.6154C258.566 84.8178 258.493 84.1505 258.395 83.6134C258.314 83.0763 258.216 82.6368 258.102 82.295V82.1974H263.742V82.295C263.628 82.6368 263.53 83.0763 263.449 83.6134C263.368 84.1505 263.294 84.8178 263.229 85.6154C263.181 86.3966 263.14 87.3325 263.107 88.423C263.075 89.4972 263.058 90.7667 263.058 92.2316V106.538ZM293.82 100.191C293.381 100.191 292.827 100.191 292.16 100.191C291.509 100.191 290.793 100.191 290.012 100.191C289.23 100.191 288.425 100.191 287.595 100.191C286.765 100.191 285.975 100.199 285.226 100.215C284.478 100.215 283.794 100.223 283.176 100.239C282.557 100.239 282.077 100.239 281.735 100.239L280.832 102.144C280.441 102.925 280.108 103.609 279.831 104.194C279.554 104.764 279.326 105.269 279.147 105.708C278.968 106.148 278.838 106.53 278.757 106.856C278.675 107.165 278.635 107.458 278.635 107.734C278.635 107.914 278.643 108.052 278.659 108.15C278.675 108.231 278.7 108.296 278.732 108.345V108.443H274.435V108.345C274.549 108.231 274.728 107.987 274.973 107.612C275.217 107.222 275.493 106.75 275.803 106.196C276.128 105.643 276.47 105.016 276.828 104.317C277.202 103.617 277.569 102.892 277.927 102.144L287.888 81.587H289.719L299.484 102.144C299.859 102.925 300.233 103.674 300.607 104.39C300.998 105.106 301.356 105.749 301.682 106.318C302.007 106.872 302.292 107.336 302.536 107.71C302.78 108.068 302.943 108.28 303.024 108.345V108.443H296.774C296.807 108.312 296.823 108.198 296.823 108.101C296.823 107.987 296.823 107.865 296.823 107.734C296.823 107.376 296.742 106.945 296.579 106.441C296.432 105.936 296.245 105.423 296.017 104.902C295.806 104.365 295.578 103.853 295.334 103.364C295.106 102.876 294.919 102.469 294.772 102.144L293.82 100.191ZM282.687 98.2863H284.177C284.86 98.2863 285.585 98.2863 286.349 98.2863C287.131 98.27 287.912 98.2618 288.693 98.2618C289.474 98.2618 290.231 98.2618 290.964 98.2618C291.696 98.2456 292.355 98.2374 292.941 98.2374L287.888 87.4464L282.687 98.2863ZM326.437 98.8966C326.437 100.28 326.454 101.493 326.486 102.534C326.535 103.56 326.584 104.447 326.633 105.195C326.698 105.944 326.771 106.571 326.852 107.075C326.95 107.58 327.048 108.003 327.145 108.345V108.443H321.286V108.345C321.384 108.003 321.473 107.58 321.555 107.075C321.652 106.571 321.734 105.944 321.799 105.195C321.864 104.447 321.913 103.56 321.945 102.534C321.978 101.493 321.994 100.28 321.994 98.8966V83.0031C321.994 81.6196 321.978 80.4152 321.945 79.3898C321.913 78.3481 321.864 77.4529 321.799 76.7042C321.734 75.9392 321.652 75.3045 321.555 74.7999C321.473 74.2954 321.384 73.8722 321.286 73.5304V73.4327C321.612 73.4653 321.953 73.4978 322.311 73.5304C322.621 73.5629 322.962 73.5874 323.337 73.6036C323.727 73.6036 324.126 73.6036 324.533 73.6036C325.168 73.6036 326.022 73.5304 327.097 73.3839C328.187 73.2212 329.571 73.1398 331.247 73.1398C332.809 73.1398 334.25 73.3514 335.568 73.7745C336.903 74.1977 338.058 74.8162 339.035 75.63C340.012 76.4438 340.768 77.4448 341.306 78.6329C341.859 79.8048 342.136 81.1394 342.136 82.6368C342.136 83.8087 341.981 84.8992 341.672 85.9083C341.379 86.9012 340.956 87.8045 340.402 88.6183C339.865 89.4321 339.214 90.1564 338.449 90.7911C337.684 91.4096 336.83 91.9305 335.886 92.3536L344.455 104.39C344.878 104.992 345.269 105.513 345.627 105.952C346.001 106.392 346.351 106.766 346.677 107.075C347.018 107.385 347.344 107.645 347.653 107.857C347.962 108.052 348.28 108.215 348.605 108.345V108.443H341.55C341.501 108.133 341.338 107.726 341.061 107.222C340.801 106.701 340.492 106.188 340.134 105.684L331.491 93.5011C330.694 93.5825 329.872 93.6232 329.025 93.6232C328.179 93.6232 327.316 93.5499 326.437 93.4034V98.8966ZM326.437 91.4991C328.032 91.7921 329.489 91.8328 330.807 91.6212C332.142 91.4096 333.281 90.9458 334.225 90.2296C335.186 89.5135 335.926 88.545 336.447 87.3243C336.984 86.0874 337.253 84.59 337.253 82.8322C337.253 81.6115 337.114 80.5047 336.838 79.5118C336.561 78.519 336.146 77.6808 335.593 76.9972C335.056 76.2973 334.372 75.7602 333.542 75.3859C332.712 74.9952 331.743 74.7999 330.637 74.7999C329.937 74.7999 329.326 74.8325 328.806 74.8976C328.285 74.9464 327.845 75.0034 327.487 75.0685C327.064 75.1499 326.714 75.2394 326.437 75.337V91.4991ZM348.898 95.2345C348.898 93.3139 349.256 91.5317 349.973 89.8878C350.705 88.2439 351.698 86.8198 352.951 85.6154C354.204 84.3947 355.685 83.4425 357.394 82.7589C359.103 82.0753 360.934 81.7335 362.888 81.7335C364.808 81.7335 366.615 82.059 368.307 82.7101C370.016 83.3448 371.498 84.2563 372.751 85.4445C374.02 86.6326 375.021 88.073 375.754 89.7657C376.486 91.4585 376.852 93.3546 376.852 95.4542C376.852 97.1958 376.543 98.8803 375.925 100.508C375.306 102.119 374.403 103.552 373.215 104.805C372.027 106.042 370.562 107.035 368.82 107.783C367.079 108.516 365.085 108.882 362.839 108.882C360.934 108.882 359.136 108.565 357.443 107.93C355.751 107.295 354.269 106.392 353 105.22C351.73 104.032 350.729 102.599 349.997 100.923C349.265 99.2303 348.898 97.3341 348.898 95.2345ZM363.449 107.149C364.686 107.149 365.825 106.904 366.867 106.416C367.909 105.928 368.804 105.228 369.553 104.317C370.318 103.405 370.904 102.298 371.31 100.996C371.734 99.6779 371.945 98.1967 371.945 96.5529C371.945 94.6811 371.742 92.9477 371.335 91.3527C370.944 89.7576 370.342 88.3823 369.528 87.2267C368.731 86.0548 367.73 85.1434 366.525 84.4923C365.321 83.825 363.913 83.4913 362.302 83.4913C361.065 83.4913 359.925 83.7273 358.884 84.1993C357.842 84.6713 356.939 85.3549 356.174 86.2501C355.425 87.1453 354.839 88.2439 354.416 89.546C353.993 90.8481 353.781 92.3292 353.781 93.9894C353.781 95.8448 353.985 97.5782 354.391 99.1896C354.815 100.785 355.425 102.176 356.223 103.364C357.036 104.536 358.045 105.464 359.25 106.148C360.454 106.815 361.854 107.149 363.449 107.149ZM393.723 87.2999H393.234C393.137 87.0232 392.974 86.6733 392.746 86.2501C392.534 85.8269 392.241 85.4119 391.867 85.005C391.509 84.5981 391.061 84.2563 390.524 83.9796C389.987 83.6866 389.344 83.5402 388.596 83.5402C388.026 83.5402 387.513 83.6378 387.057 83.8331C386.618 84.0122 386.244 84.2644 385.934 84.59C385.625 84.9155 385.389 85.3061 385.226 85.7618C385.064 86.2013 384.982 86.6814 384.982 87.2023C384.982 88.0486 385.235 88.8543 385.739 89.6193C386.26 90.3842 386.903 91.1492 387.668 91.9142C388.433 92.6629 389.263 93.4197 390.158 94.1847C391.053 94.9497 391.883 95.7472 392.648 96.5773C393.413 97.4073 394.048 98.2863 394.553 99.214C395.073 100.142 395.334 101.135 395.334 102.193C395.334 102.974 395.187 103.779 394.894 104.609C394.618 105.44 394.162 106.188 393.527 106.856C392.892 107.523 392.079 108.068 391.086 108.491C390.093 108.931 388.889 109.151 387.473 109.151C386.691 109.151 385.943 109.085 385.226 108.955C384.527 108.825 383.876 108.662 383.273 108.467C382.687 108.288 382.158 108.093 381.686 107.881C381.231 107.653 380.848 107.442 380.539 107.246L380.978 102.632H381.491C381.654 103.202 381.89 103.771 382.199 104.341C382.525 104.911 382.915 105.431 383.371 105.903C383.843 106.359 384.388 106.734 385.007 107.026C385.641 107.303 386.366 107.442 387.18 107.442C387.749 107.442 388.286 107.352 388.791 107.173C389.295 106.978 389.727 106.709 390.085 106.367C390.459 106.026 390.752 105.61 390.964 105.122C391.175 104.618 391.281 104.056 391.281 103.438C391.281 102.705 391.135 102.03 390.842 101.411C390.549 100.776 390.158 100.174 389.67 99.6046C389.182 99.0187 388.628 98.4572 388.01 97.92C387.407 97.3829 386.781 96.8377 386.13 96.2843C385.479 95.7309 384.844 95.1694 384.225 94.5997C383.623 94.0138 383.078 93.3872 382.59 92.7198C382.101 92.0525 381.711 91.3445 381.418 90.5958C381.125 89.8309 380.978 88.9926 380.978 88.0812C380.978 87.1209 381.182 86.2583 381.589 85.4933C381.996 84.7283 382.533 84.0854 383.2 83.5646C383.867 83.0275 384.632 82.6206 385.495 82.3439C386.358 82.0509 387.253 81.9044 388.181 81.9044C388.864 81.9044 389.499 81.9532 390.085 82.0509C390.687 82.1486 391.224 82.2706 391.696 82.4171C392.184 82.5473 392.608 82.6857 392.966 82.8322C393.324 82.9624 393.617 83.0682 393.845 83.1495L393.723 87.2999ZM416.379 100.191C415.939 100.191 415.386 100.191 414.719 100.191C414.068 100.191 413.351 100.191 412.57 100.191C411.789 100.191 410.983 100.191 410.153 100.191C409.323 100.191 408.534 100.199 407.785 100.215C407.036 100.215 406.353 100.223 405.734 100.239C405.116 100.239 404.636 100.239 404.294 100.239L403.391 102.144C403 102.925 402.666 103.609 402.39 104.194C402.113 104.764 401.885 105.269 401.706 105.708C401.527 106.148 401.397 106.53 401.315 106.856C401.234 107.165 401.193 107.458 401.193 107.734C401.193 107.914 401.201 108.052 401.218 108.15C401.234 108.231 401.258 108.296 401.291 108.345V108.443H396.994V108.345C397.108 108.231 397.287 107.987 397.531 107.612C397.775 107.222 398.052 106.75 398.361 106.196C398.687 105.643 399.029 105.016 399.387 104.317C399.761 103.617 400.127 102.892 400.485 102.144L410.446 81.587H412.277L422.043 102.144C422.417 102.925 422.792 103.674 423.166 104.39C423.557 105.106 423.915 105.749 424.24 106.318C424.566 106.872 424.85 107.336 425.095 107.71C425.339 108.068 425.502 108.28 425.583 108.345V108.443H419.333C419.365 108.312 419.382 108.198 419.382 108.101C419.382 107.987 419.382 107.865 419.382 107.734C419.382 107.376 419.3 106.945 419.138 106.441C418.991 105.936 418.804 105.423 418.576 104.902C418.364 104.365 418.137 103.853 417.892 103.364C417.665 102.876 417.477 102.469 417.331 102.144L416.379 100.191ZM405.246 98.2863H406.735C407.419 98.2863 408.143 98.2863 408.908 98.2863C409.689 98.27 410.471 98.2618 411.252 98.2618C412.033 98.2618 412.79 98.2618 413.522 98.2618C414.255 98.2456 414.914 98.2374 415.5 98.2374L410.446 87.4464L405.246 98.2863Z" fill="#AC6905" fill-opacity="0.5"/>
</g>
<g filter="url(#filter3_b_3_5)">
<path d="M166.777 92.6681C168.532 92.9903 170.134 93.0261 171.584 92.7755C173.053 92.5069 174.306 91.9519 175.344 91.1104C176.4 90.2511 177.215 89.0963 177.788 87.6461C178.379 86.1959 178.674 84.4234 178.674 82.3287C178.674 80.8785 178.522 79.5626 178.218 78.381C177.913 77.1814 177.457 76.1699 176.848 75.3463C176.257 74.5048 175.505 73.8603 174.592 73.4127C173.679 72.9472 172.614 72.7144 171.396 72.7144C170.627 72.7144 169.955 72.7503 169.382 72.8219C168.809 72.8756 168.326 72.9382 167.932 73.0099C167.467 73.0994 167.082 73.1978 166.777 73.3053V92.6681ZM161.111 71.2105C161.469 71.2463 161.845 71.2822 162.239 71.318C162.579 71.3538 162.955 71.3806 163.367 71.3985C163.796 71.3985 164.235 71.3985 164.683 71.3985C165.381 71.3985 166.321 71.318 167.502 71.1568C168.702 70.9778 170.224 70.8883 172.068 70.8883C173.787 70.8883 175.371 71.1389 176.821 71.6402C178.289 72.1415 179.56 72.8756 180.635 73.8424C181.709 74.8092 182.541 75.9908 183.132 77.3873C183.741 78.7659 184.045 80.3414 184.045 82.1139C184.045 84.495 183.571 86.554 182.622 88.2906C181.673 90.0273 180.402 91.4327 178.809 92.5069C177.215 93.5811 175.38 94.3152 173.303 94.7091C171.226 95.0851 169.051 95.103 166.777 94.7628V99.2208C166.777 100.743 166.795 102.076 166.831 103.222C166.885 104.35 166.938 105.326 166.992 106.15C167.064 106.973 167.144 107.662 167.234 108.217C167.341 108.772 167.449 109.238 167.556 109.614V109.721H161.111V109.614C161.218 109.238 161.317 108.772 161.406 108.217C161.514 107.662 161.603 106.973 161.675 106.15C161.746 105.326 161.8 104.35 161.836 103.222C161.872 102.076 161.89 100.743 161.89 99.2208V81.7379C161.89 80.2161 161.872 78.8912 161.836 77.7633C161.8 76.6174 161.746 75.6327 161.675 74.8092C161.603 73.9677 161.514 73.2695 161.406 72.7144C161.317 72.1594 161.218 71.6939 161.111 71.318V71.2105ZM200.508 110.205C198.52 110.205 196.658 109.891 194.922 109.265C193.185 108.638 191.672 107.725 190.383 106.525C189.094 105.308 188.074 103.813 187.322 102.041C186.588 100.25 186.221 98.2092 186.221 95.9176C186.221 93.8945 186.561 92.0235 187.241 90.3048C187.921 88.5681 188.861 87.0642 190.061 85.7931C191.261 84.5219 192.657 83.5282 194.25 82.8121C195.862 82.096 197.598 81.7379 199.46 81.7379C201.304 81.7379 203.014 82.0602 204.59 82.7047C206.165 83.3313 207.526 84.2533 208.672 85.4708C209.836 86.6703 210.749 88.1653 211.411 89.9557C212.091 91.7281 212.458 93.7512 212.512 96.025C210.489 95.9892 208.466 95.9623 206.443 95.9444C204.42 95.9265 202.316 95.9176 200.132 95.9176C198.574 95.9176 197.052 95.9265 195.566 95.9444C194.098 95.9623 192.773 95.9892 191.592 96.025C191.699 97.887 191.986 99.5699 192.451 101.074C192.935 102.578 193.588 103.867 194.412 104.941C195.253 105.997 196.265 106.812 197.446 107.385C198.646 107.958 199.997 108.244 201.501 108.244C202.54 108.244 203.516 108.128 204.429 107.895C205.36 107.644 206.201 107.304 206.953 106.875C207.705 106.445 208.376 105.944 208.967 105.371C209.558 104.78 210.059 104.144 210.471 103.464L210.793 103.625L208.806 108.405C207.839 108.907 206.685 109.336 205.342 109.694C203.999 110.035 202.388 110.205 200.508 110.205ZM196.936 93.8228C198.726 93.8228 200.517 93.8228 202.307 93.8228C204.115 93.8049 205.754 93.7691 207.222 93.7154C207.06 92.1578 206.756 90.7613 206.309 89.526C205.861 88.2906 205.288 87.2433 204.59 86.3839C203.892 85.5245 203.068 84.8621 202.119 84.3966C201.17 83.9311 200.123 83.6983 198.977 83.6983C197.939 83.6983 196.981 83.9311 196.103 84.3966C195.244 84.8442 194.492 85.4977 193.848 86.357C193.203 87.2164 192.684 88.2727 192.29 89.526C191.896 90.7613 191.663 92.1757 191.592 93.7691C192.397 93.8049 193.248 93.8228 194.143 93.8228C195.038 93.8228 195.969 93.8228 196.936 93.8228ZM205.933 74.2452C204.608 74.6928 203.265 75.1672 201.904 75.6685C201.313 75.8834 200.696 76.1161 200.051 76.3668C199.407 76.6174 198.753 76.886 198.091 77.1725C197.428 77.4589 196.757 77.7543 196.077 78.0587C195.414 78.3451 194.779 78.6495 194.17 78.9718L193.579 77.9781C194.743 77.2083 195.898 76.3668 197.043 75.4537C198.207 74.5406 199.272 73.6812 200.239 72.8756C201.349 71.9446 202.423 71.0046 203.462 70.0558L205.933 74.2452ZM228.008 108.137C228.545 108.137 229.073 108.038 229.592 107.841C230.129 107.644 230.64 107.376 231.123 107.036C231.624 106.696 232.099 106.311 232.546 105.881C233.012 105.433 233.442 104.968 233.835 104.484L234.104 104.619L232.358 108.942C232.143 109.05 231.875 109.184 231.553 109.345C231.248 109.489 230.872 109.623 230.425 109.748C229.995 109.891 229.485 110.008 228.894 110.097C228.303 110.205 227.605 110.258 226.799 110.258C224.4 110.258 222.529 109.614 221.186 108.325C219.862 107.018 219.199 104.986 219.199 102.229V84.316L214.687 84.4771V82.1139C215.242 82.1497 215.905 82.1765 216.675 82.1944C217.445 82.2123 218.286 82.2213 219.199 82.2213C219.181 80.9501 219.145 79.8311 219.092 78.8643C219.056 77.8796 219.002 77.0292 218.931 76.3131C218.877 75.579 218.805 74.9614 218.716 74.4601C218.626 73.9588 218.537 73.538 218.447 73.1978V73.0904H224.651V73.1978C224.543 73.538 224.445 73.9588 224.355 74.4601C224.266 74.9614 224.185 75.5701 224.114 76.2862C224.06 77.0024 224.006 77.8528 223.953 78.8375C223.917 79.8043 223.89 80.9322 223.872 82.2213C225 82.2034 226.101 82.1855 227.175 82.1676C228.267 82.1318 229.252 82.096 230.129 82.0602C231.025 82.0064 231.776 81.9617 232.385 81.9259C233.012 81.8722 233.424 81.8274 233.621 81.7916L233.137 84.5309C232.224 84.5129 231.266 84.4861 230.264 84.4503C229.404 84.4145 228.42 84.3876 227.31 84.3697C226.199 84.3518 225.054 84.3339 223.872 84.316V102.793C223.872 103.903 223.988 104.807 224.221 105.505C224.472 106.185 224.785 106.722 225.161 107.116C225.555 107.51 225.994 107.779 226.477 107.922C226.978 108.065 227.489 108.137 228.008 108.137ZM237.246 101.799C237.246 100.385 237.532 99.1581 238.105 98.1197C238.696 97.0813 239.475 96.1951 240.442 95.461C241.409 94.727 242.51 94.1362 243.745 93.6886C244.98 93.2231 246.261 92.865 247.585 92.6143C248.91 92.3458 250.217 92.1668 251.506 92.0772C252.795 91.9698 253.977 91.9072 255.051 91.8893V90.5196C255.051 89.338 254.899 88.3175 254.595 87.4581C254.29 86.5987 253.861 85.8915 253.306 85.3365C252.751 84.7636 252.079 84.3429 251.291 84.0743C250.522 83.7879 249.671 83.6446 248.74 83.6446C248.096 83.6446 247.46 83.6983 246.833 83.8058C246.207 83.9132 245.553 84.0922 244.873 84.3429C244.211 84.5935 243.503 84.9337 242.751 85.3634C242.017 85.7931 241.221 86.3391 240.361 87.0016L240.093 86.8404L241.919 83.0538C242.51 82.7852 243.092 82.5704 243.664 82.4093C244.237 82.2302 244.819 82.087 245.41 81.9796C246.001 81.8722 246.601 81.8005 247.209 81.7647C247.836 81.711 248.49 81.6842 249.17 81.6842C251.05 81.6842 252.652 81.9169 253.977 82.3824C255.32 82.83 256.412 83.4566 257.253 84.2623C258.113 85.0501 258.739 85.981 259.133 87.0553C259.527 88.1116 259.724 89.2485 259.724 90.4659V99.2208C259.724 100.743 259.742 102.076 259.778 103.222C259.831 104.35 259.885 105.326 259.939 106.15C260.011 106.973 260.091 107.662 260.181 108.217C260.288 108.772 260.395 109.238 260.503 109.614V109.721H254.568V109.614C254.657 109.327 254.72 109.005 254.756 108.647C254.81 108.289 254.854 107.859 254.89 107.358C254.514 107.68 254.067 108.011 253.547 108.352C253.046 108.692 252.464 109.005 251.802 109.292C251.157 109.56 250.432 109.775 249.626 109.936C248.839 110.115 247.97 110.205 247.021 110.205C243.906 110.205 241.498 109.48 239.797 108.029C238.096 106.561 237.246 104.484 237.246 101.799ZM255.051 93.984C253.422 94.0019 251.855 94.1004 250.352 94.2794C248.848 94.4405 247.514 94.7896 246.35 95.3268C245.204 95.8639 244.282 96.6337 243.584 97.6363C242.904 98.621 242.563 99.9369 242.563 101.584C242.563 103.697 243.092 105.308 244.148 106.418C245.204 107.528 246.663 108.083 248.525 108.083C249.385 108.083 250.164 107.967 250.862 107.734C251.578 107.483 252.205 107.179 252.742 106.821C253.297 106.445 253.762 106.042 254.138 105.612C254.514 105.165 254.801 104.735 254.997 104.323C255.033 103.643 255.051 102.891 255.051 102.067C255.051 101.226 255.051 100.277 255.051 99.2208V93.984ZM268.022 80.0728C268.022 78.551 267.996 77.2262 267.942 76.0982C267.906 74.9524 267.852 73.9677 267.781 73.1441C267.727 72.3206 267.646 71.6313 267.539 71.0763C267.449 70.5213 267.351 70.0558 267.244 69.6798V69.5724H273.447V69.6798C273.34 70.0558 273.241 70.5213 273.152 71.0763C273.062 71.6313 272.982 72.3206 272.91 73.1441C272.838 73.9677 272.785 74.9524 272.749 76.0982C272.713 77.2262 272.695 78.551 272.695 80.0728V99.2208C272.695 100.743 272.713 102.076 272.749 103.222C272.785 104.35 272.838 105.326 272.91 106.15C272.982 106.973 273.062 107.662 273.152 108.217C273.241 108.772 273.34 109.238 273.447 109.614V109.721H267.244V109.614C267.351 109.238 267.449 108.772 267.539 108.217C267.646 107.662 267.727 106.973 267.781 106.15C267.852 105.326 267.906 104.35 267.942 103.222C267.996 102.076 268.022 100.743 268.022 99.2208V80.0728ZM278.979 101.799C278.979 100.385 279.266 99.1581 279.839 98.1197C280.43 97.0813 281.208 96.1951 282.175 95.461C283.142 94.727 284.243 94.1362 285.478 93.6886C286.714 93.2231 287.994 92.865 289.319 92.6143C290.644 92.3458 291.951 92.1668 293.24 92.0772C294.529 91.9698 295.71 91.9072 296.785 91.8893V90.5196C296.785 89.338 296.632 88.3175 296.328 87.4581C296.024 86.5987 295.594 85.8915 295.039 85.3365C294.484 84.7636 293.813 84.3429 293.025 84.0743C292.255 83.7879 291.405 83.6446 290.474 83.6446C289.829 83.6446 289.193 83.6983 288.567 83.8058C287.94 83.9132 287.287 84.0922 286.606 84.3429C285.944 84.5935 285.237 84.9337 284.485 85.3634C283.751 85.7931 282.954 86.3391 282.095 87.0016L281.826 86.8404L283.652 83.0538C284.243 82.7852 284.825 82.5704 285.398 82.4093C285.971 82.2302 286.553 82.087 287.143 81.9796C287.734 81.8722 288.334 81.8005 288.943 81.7647C289.569 81.711 290.223 81.6842 290.903 81.6842C292.783 81.6842 294.386 81.9169 295.71 82.3824C297.053 82.83 298.145 83.4566 298.987 84.2623C299.846 85.0501 300.473 85.981 300.867 87.0553C301.261 88.1116 301.457 89.2485 301.457 90.4659V99.2208C301.457 100.743 301.475 102.076 301.511 103.222C301.565 104.35 301.619 105.326 301.672 106.15C301.744 106.973 301.824 107.662 301.914 108.217C302.021 108.772 302.129 109.238 302.236 109.614V109.721H296.301V109.614C296.391 109.327 296.453 109.005 296.489 108.647C296.543 108.289 296.588 107.859 296.623 107.358C296.247 107.68 295.8 108.011 295.281 108.352C294.779 108.692 294.198 109.005 293.535 109.292C292.891 109.56 292.165 109.775 291.36 109.936C290.572 110.115 289.704 110.205 288.755 110.205C285.64 110.205 283.232 109.48 281.531 108.029C279.83 106.561 278.979 104.484 278.979 101.799ZM296.785 93.984C295.155 94.0019 293.589 94.1004 292.085 94.2794C290.581 94.4405 289.247 94.7896 288.083 95.3268C286.938 95.8639 286.016 96.6337 285.317 97.6363C284.637 98.621 284.297 99.9369 284.297 101.584C284.297 103.697 284.825 105.308 285.881 106.418C286.938 107.528 288.397 108.083 290.259 108.083C291.118 108.083 291.897 107.967 292.595 107.734C293.311 107.483 293.938 107.179 294.475 106.821C295.03 106.445 295.496 106.042 295.872 105.612C296.247 105.165 296.534 104.735 296.731 104.323C296.767 103.643 296.785 102.891 296.785 102.067C296.785 101.226 296.785 100.277 296.785 99.2208V93.984ZM331.455 99.2208C331.455 100.743 331.473 102.076 331.509 103.222C331.562 104.35 331.616 105.326 331.67 106.15C331.741 106.973 331.822 107.662 331.912 108.217C332.019 108.772 332.126 109.238 332.234 109.614V109.721H325.789V109.614C325.896 109.238 325.994 108.772 326.084 108.217C326.191 107.662 326.272 106.973 326.326 106.15C326.397 105.326 326.451 104.35 326.487 103.222C326.54 102.094 326.567 100.761 326.567 99.2208V81.7379C326.567 80.2161 326.54 78.8912 326.487 77.7633C326.451 76.6174 326.397 75.6327 326.326 74.8092C326.272 73.9856 326.191 73.2963 326.084 72.7413C325.994 72.1684 325.896 71.6939 325.789 71.318V71.2105L326.916 71.318C327.257 71.3538 327.633 71.3806 328.044 71.3985C328.474 71.3985 328.913 71.3985 329.36 71.3985C330.059 71.3985 330.998 71.318 332.18 71.1568C333.38 70.9778 334.901 70.8883 336.746 70.8883C338.464 70.8883 340.049 71.121 341.499 71.5865C342.967 72.052 344.238 72.7324 345.312 73.6275C346.387 74.5227 347.219 75.6238 347.81 76.9308C348.419 78.2198 348.723 79.6879 348.723 81.3351C348.723 82.6241 348.553 83.8237 348.213 84.9337C347.891 86.0258 347.425 87.0195 346.816 87.9146C346.226 88.8098 345.509 89.6065 344.668 90.3048C343.826 90.9851 342.886 91.558 341.848 92.0235L351.274 105.263C351.74 105.926 352.17 106.499 352.563 106.982C352.975 107.465 353.36 107.886 353.718 108.244C354.094 108.584 354.452 108.871 354.792 109.104C355.133 109.318 355.482 109.489 355.84 109.614V109.721H348.079C348.025 109.381 347.846 108.934 347.541 108.379C347.255 107.806 346.915 107.242 346.521 106.687L337.014 93.2857C336.602 93.3215 336.191 93.3574 335.779 93.3932C335.367 93.4111 334.946 93.42 334.517 93.42C334.015 93.42 333.505 93.4021 332.986 93.3663C332.484 93.3305 331.974 93.2678 331.455 93.1783V99.2208ZM331.455 91.0836C331.938 91.191 332.431 91.2716 332.932 91.3253C333.433 91.3611 333.917 91.379 334.382 91.379C335.725 91.379 336.951 91.1821 338.061 90.7882C339.171 90.3764 340.111 89.7587 340.881 88.9352C341.669 88.1116 342.278 87.0911 342.707 85.8736C343.137 84.6383 343.352 83.197 343.352 81.5499C343.352 80.2071 343.2 78.9897 342.895 77.8976C342.591 76.8054 342.135 75.8834 341.526 75.1314C340.935 74.3616 340.183 73.7708 339.27 73.359C338.357 72.9293 337.292 72.7144 336.074 72.7144C334.839 72.7144 333.854 72.7771 333.12 72.9024C332.386 73.0278 331.831 73.162 331.455 73.3053V91.0836ZM356.323 95.9176C356.323 93.8945 356.699 92.0235 357.451 90.3048C358.203 88.5681 359.233 87.0642 360.539 85.7931C361.864 84.5219 363.422 83.5282 365.212 82.8121C367.003 82.096 368.927 81.7379 370.986 81.7379C373.009 81.7379 374.907 82.0781 376.68 82.7584C378.47 83.4208 380.028 84.3697 381.352 85.6051C382.677 86.8404 383.716 88.3443 384.468 90.1168C385.238 91.8893 385.622 93.8766 385.622 96.0787C385.622 97.9228 385.3 99.6952 384.656 101.396C384.011 103.097 383.062 104.601 381.809 105.908C380.556 107.215 379.016 108.262 377.19 109.05C375.382 109.82 373.296 110.205 370.933 110.205C368.927 110.205 367.039 109.873 365.266 109.211C363.494 108.549 361.945 107.6 360.62 106.364C359.295 105.129 358.248 103.634 357.478 101.879C356.708 100.107 356.323 98.1197 356.323 95.9176ZM371.55 108.244C372.821 108.244 373.985 107.994 375.041 107.492C376.116 106.991 377.038 106.266 377.808 105.317C378.577 104.368 379.177 103.213 379.607 101.853C380.037 100.492 380.251 98.9522 380.251 97.2335C380.251 95.2999 380.046 93.5095 379.634 91.8624C379.222 90.1974 378.604 88.7651 377.781 87.5655C376.975 86.3481 375.955 85.3992 374.719 84.7188C373.484 84.0385 372.043 83.6983 370.395 83.6983C369.124 83.6983 367.961 83.949 366.904 84.4503C365.848 84.9337 364.926 85.6409 364.138 86.5719C363.368 87.5029 362.768 88.6487 362.339 90.0094C361.909 91.3521 361.694 92.8829 361.694 94.6017C361.694 96.5352 361.9 98.3346 362.312 99.9996C362.742 101.665 363.368 103.115 364.192 104.35C365.015 105.568 366.036 106.525 367.253 107.224C368.489 107.904 369.921 108.244 371.55 108.244ZM403.804 87.6192L403.428 87.6729C403.302 87.2612 403.096 86.8225 402.81 86.357C402.541 85.8915 402.183 85.4618 401.736 85.068C401.306 84.6741 400.778 84.3518 400.151 84.1012C399.543 83.8326 398.835 83.6983 398.03 83.6983C397.475 83.6983 396.947 83.7789 396.445 83.94C395.962 84.1012 395.532 84.3429 395.156 84.6651C394.798 84.9695 394.512 85.3544 394.297 85.8199C394.082 86.2854 393.975 86.8315 393.975 87.4581C393.975 88.3354 394.243 89.1768 394.78 89.9825C395.335 90.7703 396.025 91.558 396.848 92.3458C397.672 93.1157 398.558 93.8945 399.507 94.6822C400.474 95.47 401.369 96.2935 402.192 97.1529C403.016 98.0123 403.696 98.9343 404.233 99.919C404.788 100.886 405.066 101.933 405.066 103.061C405.066 103.974 404.905 104.869 404.582 105.747C404.26 106.606 403.759 107.376 403.079 108.056C402.416 108.737 401.557 109.292 400.5 109.721C399.462 110.133 398.218 110.339 396.768 110.339C395.908 110.339 395.102 110.258 394.351 110.097C393.616 109.936 392.936 109.739 392.31 109.506C391.701 109.256 391.146 108.987 390.644 108.701C390.161 108.396 389.731 108.11 389.355 107.841L389.624 102.739H390.054C390.233 103.58 390.501 104.35 390.859 105.048C391.217 105.747 391.656 106.346 392.175 106.848C392.712 107.331 393.321 107.716 394.001 108.003C394.682 108.271 395.425 108.405 396.23 108.405C397.555 108.405 398.603 108.038 399.372 107.304C400.16 106.57 400.554 105.612 400.554 104.431C400.554 103.482 400.286 102.614 399.748 101.826C399.229 101.02 398.567 100.25 397.761 99.5162C396.956 98.7822 396.087 98.0481 395.156 97.3141C394.243 96.58 393.384 95.8012 392.578 94.9776C391.772 94.1362 391.101 93.2231 390.564 92.2384C390.045 91.2358 389.785 90.0989 389.785 88.8277C389.785 87.7893 389.973 86.8404 390.349 85.981C390.743 85.1038 391.28 84.3608 391.96 83.752C392.659 83.1254 393.482 82.642 394.431 82.3018C395.38 81.9617 396.418 81.7916 397.546 81.7916C399.032 81.7916 400.268 81.9527 401.252 82.275C402.255 82.5794 403.016 82.8748 403.535 83.1612L403.804 87.6192ZM409.014 101.799C409.014 100.385 409.3 99.1581 409.873 98.1197C410.464 97.0813 411.243 96.1951 412.209 95.461C413.176 94.727 414.277 94.1362 415.513 93.6886C416.748 93.2231 418.028 92.865 419.353 92.6143C420.678 92.3458 421.985 92.1668 423.274 92.0772C424.563 91.9698 425.745 91.9072 426.819 91.8893V90.5196C426.819 89.338 426.667 88.3175 426.362 87.4581C426.058 86.5987 425.628 85.8915 425.073 85.3365C424.518 84.7636 423.847 84.3429 423.059 84.0743C422.289 83.7879 421.439 83.6446 420.508 83.6446C419.863 83.6446 419.228 83.6983 418.601 83.8058C417.974 83.9132 417.321 84.0922 416.641 84.3429C415.978 84.5935 415.271 84.9337 414.519 85.3634C413.785 85.7931 412.988 86.3391 412.129 87.0016L411.86 86.8404L413.686 83.0538C414.277 82.7852 414.859 82.5704 415.432 82.4093C416.005 82.2302 416.587 82.087 417.178 81.9796C417.768 81.8722 418.368 81.8005 418.977 81.7647C419.604 81.711 420.257 81.6842 420.937 81.6842C422.817 81.6842 424.42 81.9169 425.745 82.3824C427.087 82.83 428.179 83.4566 429.021 84.2623C429.88 85.0501 430.507 85.981 430.901 87.0553C431.295 88.1116 431.492 89.2485 431.492 90.4659V99.2208C431.492 100.743 431.51 102.076 431.545 103.222C431.599 104.35 431.653 105.326 431.706 106.15C431.778 106.973 431.859 107.662 431.948 108.217C432.056 108.772 432.163 109.238 432.27 109.614V109.721H426.335V109.614C426.425 109.327 426.488 109.005 426.523 108.647C426.577 108.289 426.622 107.859 426.658 107.358C426.282 107.68 425.834 108.011 425.315 108.352C424.814 108.692 424.232 109.005 423.569 109.292C422.925 109.56 422.2 109.775 421.394 109.936C420.606 110.115 419.738 110.205 418.789 110.205C415.674 110.205 413.266 109.48 411.565 108.029C409.864 106.561 409.014 104.484 409.014 101.799ZM426.819 93.984C425.19 94.0019 423.623 94.1004 422.119 94.2794C420.615 94.4405 419.281 94.7896 418.118 95.3268C416.972 95.8639 416.05 96.6337 415.352 97.6363C414.671 98.621 414.331 99.9369 414.331 101.584C414.331 103.697 414.859 105.308 415.915 106.418C416.972 107.528 418.431 108.083 420.293 108.083C421.152 108.083 421.931 107.967 422.629 107.734C423.345 107.483 423.972 107.179 424.509 106.821C425.064 106.445 425.53 106.042 425.906 105.612C426.282 105.165 426.568 104.735 426.765 104.323C426.801 103.643 426.819 102.891 426.819 102.067C426.819 101.226 426.819 100.277 426.819 99.2208V93.984Z" fill="url(#paint1_linear_3_5)"/>
</g>
<g filter="url(#filter4_d_3_5)">
<path d="M111.92 68.7516C120.025 68.7516 126.483 69.0148 133.39 73.8367C140.211 78.5983 144.126 87.127 144.126 95.3073C144.126 105.975 141.046 119.748 129.213 121.14" stroke="url(#paint2_linear_3_5)" stroke-width="8" stroke-linecap="square"/>
<path d="M112.055 67.3829C112.055 56.8339 122.892 48.8458 128.016 40.6484C132.14 34.0499 134.081 27.7234 134.081 19.979" stroke="url(#paint3_linear_3_5)" stroke-width="5" stroke-linecap="round"/>
<path d="M109.66 24.6805C110.304 21.1349 114.829 14.721 117.047 12.0541C119.377 9.25297 122.724 6.83159 125.94 5.03053C128.854 3.39855 133.512 3.94096 136.78 5.03052C140.784 6.36495 144.457 13.1087 146.134 16.5819C148.356 21.1804 150.274 26.4134 151.157 31.4606C152.475 38.9924 151.709 46.3564 146.951 52.4917C138.276 63.6774 125.586 68.7516 111.92 68.7516" stroke="url(#paint4_linear_3_5)" stroke-width="8" stroke-linecap="round"/>
<path d="M53.0527 143.351C53.0527 133.102 52.5547 122.722 53.2976 112.496C54.2392 99.5359 58.8383 88.7793 66.4598 78.2437C78.8506 61.1152 99.6697 50.932 107.508 30.5537C108.112 28.9812 108.942 27.2113 109.222 25.5337C109.498 23.8785 108.212 28.7455 107.936 30.4006C105.643 44.1577 108.707 60.6348 112.375 73.8665C117.921 93.8745 137.427 118.627 126.026 139.922C123.029 145.522 117.384 147.979 111.701 150.391C106.049 152.791 100.175 155.523 94.1311 156.788C85.8003 158.532 78.6194 160.513 70.3354 162.538C65.6859 163.675 59.4175 164.531 54.675 164.869C46.4375 165.458 32.1009 147.511 24.5766 150.391C14.8076 154.131 30.822 184 8.54706 172.062" stroke="url(#paint5_linear_3_5)" stroke-width="8" stroke-linecap="round"/>
<path d="M52.7801 164.882C58.2964 159.153 61.6532 152.424 65.7252 145.677C71.9078 135.434 77.7196 125.589 82.2239 114.516C86.695 103.525 90.7666 92.8293 92.723 81.0905" stroke="url(#paint6_linear_3_5)" stroke-width="6" stroke-linecap="round"/>
</g>
<defs>
<filter id="filter0_f_3_5" x="156.762" y="66.856" width="272.551" height="45.5732" filterUnits="userSpaceOnUse" color-interpolation-filters="sRGB">
<feFlood flood-opacity="0" result="BackgroundImageFix"/>
<feBlend mode="normal" in="SourceGraphic" in2="BackgroundImageFix" result="shape"/>
<feGaussianBlur stdDeviation="2" result="effect1_foregroundBlur_3_5"/>
</filter>
<filter id="filter1_i_3_5" x="160.84" y="68.8511" width="271.16" height="45.7666" filterUnits="userSpaceOnUse" color-interpolation-filters="sRGB">
<feFlood flood-opacity="0" result="BackgroundImageFix"/>
<feBlend mode="normal" in="SourceGraphic" in2="BackgroundImageFix" result="shape"/>
<feColorMatrix in="SourceAlpha" type="matrix" values="0 0 0 0 0 0 0 0 0 0 0 0 0 0 0 0 0 0 127 0" result="hardAlpha"/>
<feOffset dy="5"/>
<feGaussianBlur stdDeviation="5"/>
<feComposite in2="hardAlpha" operator="arithmetic" k2="-1" k3="1"/>
<feColorMatrix type="matrix" values="0 0 0 0 1 0 0 0 0 0.901667 0 0 0 0 0.754167 0 0 0 0.63 0"/>
<feBlend mode="normal" in2="shape" result="effect1_innerShadow_3_5"/>
</filter>
<filter id="filter2_f_3_5" x="111.032" y="21.5773" width="364.551" height="137.573" filterUnits="userSpaceOnUse" color-interpolation-filters="sRGB">
<feFlood flood-opacity="0" result="BackgroundImageFix"/>
<feBlend mode="normal" in="SourceGraphic" in2="BackgroundImageFix" result="shape"/>
<feGaussianBlur stdDeviation="25" result="effect1_foregroundBlur_3_5"/>
</filter>
<filter id="filter3_b_3_5" x="157.111" y="65.5724" width="279.16" height="48.7666" filterUnits="userSpaceOnUse" color-interpolation-filters="sRGB">
<feFlood flood-opacity="0" result="BackgroundImageFix"/>
<feGaussianBlur in="BackgroundImageFix" stdDeviation="2"/>
<feComposite in2="SourceAlpha" operator="in" result="effect1_backgroundBlur_3_5"/>
<feBlend mode="normal" in="SourceGraphic" in2="effect1_backgroundBlur_3_5" result="shape"/>
</filter>
<filter id="filter4_d_3_5" x="0.54628" y="1.52588e-05" width="159.184" height="186.861" filterUnits="userSpaceOnUse" color-interpolation-filters="sRGB">
<feFlood flood-opacity="0" result="BackgroundImageFix"/>
<feColorMatrix in="SourceAlpha" type="matrix" values="0 0 0 0 0 0 0 0 0 0 0 0 0 0 0 0 0 0 127 0" result="hardAlpha"/>
<feOffset dy="4"/>
<feGaussianBlur stdDeviation="2"/>
<feComposite in2="hardAlpha" operator="out"/>
<feColorMatrix type="matrix" values="0 0 0 0 0 0 0 0 0 0 0 0 0 0 0 0 0 0 0.25 0"/>
<feBlend mode="normal" in2="BackgroundImageFix" result="effect1_dropShadow_3_5"/>
<feBlend mode="normal" in="SourceGraphic" in2="effect1_dropShadow_3_5" result="shape"/>
</filter>
<linearGradient id="paint0_linear_3_5" x1="192.356" y1="42.6945" x2="440.593" y2="144.71" gradientUnits="userSpaceOnUse">
<stop offset="0.0329507" stop-color="#C88219"/>
<stop offset="0.125783" stop-color="#AD3416"/>
<stop offset="0.276042" stop-color="#CF106C"/>
<stop offset="0.528777" stop-color="#AB6D10"/>
<stop offset="0.71875" stop-color="#CC0C68"/>
<stop offset="0.917041" stop-color="#AC6905"/>
</linearGradient>
<linearGradient id="paint1_linear_3_5" x1="192.626" y1="43.4157" x2="440.864" y2="145.431" gradientUnits="userSpaceOnUse">
<stop offset="0.0329507" stop-color="#C88219"/>
<stop offset="0.125783" stop-color="#AD3416"/>
<stop offset="0.276042" stop-color="#CF106C"/>
<stop offset="0.528777" stop-color="#AB6D10"/>
<stop offset="0.71875" stop-color="#CC0C68"/>
<stop offset="0.917041" stop-color="#AC6905"/>
</linearGradient>
<linearGradient id="paint2_linear_3_5" x1="128.023" y1="62.5802" x2="119.56" y2="133.212" gradientUnits="userSpaceOnUse">
<stop offset="0.078125" stop-color="#880041"/>
<stop offset="0.734375" stop-color="#C88219" stop-opacity="0.78"/>
</linearGradient>
<linearGradient id="paint3_linear_3_5" x1="123.068" y1="19.979" x2="123.068" y2="67.3829" gradientUnits="userSpaceOnUse">
<stop stop-color="#B10C5B"/>
<stop offset="0.473958" stop-color="#880041"/>
</linearGradient>
<linearGradient id="paint4_linear_3_5" x1="184.426" y1="-49.1327" x2="109.66" y2="116.635" gradientUnits="userSpaceOnUse">
<stop offset="0.229167" stop-color="#AC6905"/>
<stop offset="0.552083" stop-color="#880041"/>
</linearGradient>
<linearGradient id="paint5_linear_3_5" x1="69.044" y1="25.1953" x2="69.044" y2="174.862" gradientUnits="userSpaceOnUse">
<stop offset="0.078125" stop-color="#880041"/>
<stop offset="0.734375" stop-color="#C88219"/>
</linearGradient>
<linearGradient id="paint6_linear_3_5" x1="72.7516" y1="81.0905" x2="72.7516" y2="164.882" gradientUnits="userSpaceOnUse">
<stop offset="0.078125" stop-color="#880041"/>
<stop offset="0.734375" stop-color="#C88219"/>
</linearGradient>
</defs>
</svg>
